<svg xmlns="http://www.w3.org/2000/svg" version="1.1" viewBox="0 0 1080 800" preserveAspectRatio="none">
  <path d="M960.59,17.41c22.34,1.27,45-.55,67.22.8,6.99.23,14.06-.65,20.62,1.64,13.49,5.44,17.16,17.64,16.46,31.66,4.66,232.1-3.51,466.97,2.28,699.05-.02,5.54-.66,11.35-1.89,16.64-2.63,11.84-15.54,14.65-26.1,15.44-9.35.74-18.28-1.79-27.54-1.83-101.99.94-203.94-5.15-306.74-2.41-114.26,5.46-229.29.27-343.34-.44-77.2-.58-153.6,2.19-230.58,3.1-24.82-.21-49.81.74-74.58-.67-5.96-.88-11.6-3.55-17.25-5.47-8.15-2.48-16.36-7.82-17.37-16.98-1.05-16.37-8.06-32.15-9.5-48.36-.3-4.17.19-8.09.76-12.19,1.44-10.09,1.81-20.87,2.93-31.28.49-4.99,1.09-9.95,1.1-14.96.04-8.45-1.69-16.65-1.51-25.06.73-20.49,3.36-40.31,3.3-61.02-1.76-137.84-3.26-275-4.33-412.99-.4-25.88.02-52.5-2.37-78.25-.92-8.44.26-16.92,2.19-25.14,1.71-7.75,4.3-14.99,11.98-17.4,26.62-6.35,53.95-13.11,81.55-12.59,283.35,5.74,568.93-1.41,852.52-1.31h.19Z"/>
</svg>