<svg xmlns="http://www.w3.org/2000/svg" version="1.1" viewBox="0 0 292.52 95.16" preserveAspectRatio="none" fill="#ad9ad9">
  <path d="M220.61,73.25c-3.72,3.26-7.67,6.85-10.49,10.86-3.23,4.14-4.18,1.1-4.75-2.49-.9-3.82-2.21-1.33-2.64.5-.7,3.19-4.51,5.26-7.68,4.85-1.35-.21-2.66-1.27-3.84-1.56-1.77-.39-2.98,1.34-4.21,2.49-1.67,1.47-3.98,4.68-6.22,2.61-1.16-1.69-.66-4.33-.85-6.39.06-5-2.07-7.95-6.67-4.45-4.71,3.55-10.1,16.17-16.75,13.65-1.08-.38-2.47-1.33-2.04-2.52.19-1.21,4.48-4.42,2.51-5.43-1.14-.28-2.73.36-3.92.72-3.02,1.15-6.47,1.25-9.03,2.96-2.9,2-5.63,5.09-9.12,5.95-1.33.31-2.42-.13-2.81-1.29-.54-4.07,4.89-7.16,6.73-10.52,1.01-1.45.87-2.7-.66-2.79-1.69-.22-4.31,1.21-6.12,1.93-2.46,1.08-5.4,1.2-7.18,3.39-1.33,1.59-2.81,4.2-4.05,4.26-1.11.04-1.61-1.28-1.55-2.27,0-1.35,1.26-2.99,1.97-3.83.28-.37.4-.63.26-.87-.13-.15-.24-.26-.39-.31-1.24-.44-3.09-.25-4.52-.23-3.02-.07-8.2,3.54-10.62,5.72-3.16,2.6-6.78-.69-10.31-.52-2.76-.27-5.03.85-6.26-.71-1.33-2.03-6.07,2.59-7.62.73-1.3-1.09-3.12-1.3-3.85-3.15-4.09-8.46-8.41,3.68-13.34,4.06-2.93.16,1.41-5.35,3.56-8.95.84-1.41-.18-3.22-1.82-3.23-6.43-.02-8.07,5.56-8.82,6.81-1.59,2.68-4.54,4.16-6.98,6-2.48,1.94-4.05,3.84-5.79,5.28-1.77,1.54-3.61-.65-4.32-3.59-.52-2.24,1.78-4.65,3.02-6.64.85-1.23,1.58-2.6,2.53-3.77,1.39-1.64,3.14-2.76,3.61-4.06.53-1.2-.44-1.95-1.84-1.84-1.54.09-3.54,1.29-5.08.68-3.61-1.62-2.87-6.87-1.41-9.74.73-1.8,3.83-4.94,2.47-6.48-1.24-.38-2.35,1.11-3.14,1.93-1.3,1.68-3.43,3.42-5.16,5.12-1.45,1.65-2.9,3.69-4.7,4.15-11.72,2.98-7.98-3.19-4.67-10.5.26-2.44-3.02.92-5.58,2.27-2.49,1.17-5.52,3.87-7.8,4.15-2.03-.53-1.52-2.75-.47-4.67,1.59-3.39,7.44-8.81,6.21-12.62-.86-2.03-3.11-2.04-4.93-2.91-1.19-.67-2.06-1.78-3.25-2.42-.54-.31-1.24-.76-1.76-.63-1.09.44-1.52,1.59-2.37,2.44-2.57,3.76-8.55-.83-5.1-4.1.87-.75,1.94-1.25,2.85-1.91,1.51-1.05,2.75-3.17,4.26-4.68,3.22-2.71,4.82-6.49,6.94-10.1,2.14-3,4.38-5.92,6.56-8.91,1.25-1.63,3.15-3.51,5.27-3.32,2.07.16,4.07,1.48,6.22,1.1,3.54-.47,6.74-4.12,10.09-5.81,3.3-1.51,4.65-4.47,7.63-6.14,1.4-.71,2.86-2.04,4.53-1.74,1.66.28,2.74,1.95,2.29,3.55-.98,2.76-4,4.43-5.2,7.15-1.11,2.22-1.41,4.51.49,4.38,5.01-1.41,4.1.34,4.6,4.37.15,1.25,1.01,2.6,2.41,2.15,1.55-.38,3.12-1.97,5.02-2.74,1.93-.79,5.18-3.11,7.07-4.01,1.5-.7,2.12-2.75,3.24-3.73,4.09-2.8,3.35,7.37,6.98,6.62,1.36-.43,2.4-2.64,4.71-3.08,2.19-.4,5.73.13,6.77,2.29,1.63,3.38-11.49,13.11,7.76-.7,6.59-6.43,4.12,8.39,9.76,4.47,2.17-1.44,3.48-3.84,5.23-5.59,2.86-1.96,11.08-9.77,14.34-4.64,1.18,1.68,2.17,2.3,4.07,1.33,5.58-2.5,5.14,12.78,14.79,3.8,2.37-2.17,4.58-4.29,7.53-3.16,1.2.39,1.79,1.81,2.68,2.61,1.47,1.06,3.12,1.57,4.58,2.78,3.01,3.2,4,3.22,7.02-.6,2.67-2.37,7.59-7.96,10.83-4.03,1.32,2.2-2.6,4.73-4.21,6.48-1.29,1.48-2,3.29-.24,3.24,1.3,0,3.68-1.31,5.48-1.59,1.83-.4,3.92-.14,5.7-.51,2.72-.46,4.47-4.1,6.98-4.56,3.7-.25,3.09,4.65,3.24,7.21.02,7.27,3.87,9.59,8.63,3.33,2.42-2.19,10.09-10.17,12.33-5.97.51,1.45-.96,3.81-1.27,5.26-.4,1.92.62,1.8,1.68.66,1.61-1.63,3.67-3.75,6.01-2.91,1.87.59,1.98,3.73,3.83,4.13,1.02.21,1.97-.24,2.77-.98,1.3-1.28,2.03-3.13,3.14-4.52,1.96-2,8.58-8.95,10.72-4.48.58,1.99-1.68,6.13-1.2,7.96.55,1.37,2.24-.27,3.26-.03,1.52.14,1.25,2.22.96,3.37-.5,3.6-4.59,6.05-4.82,9.17-.13,1.54,1.16,3.21,2.75,3.14,1.49-.07,3.59-1.51,3.23-3.17-.1-.86-.87-1.86-.42-2.7.96-1.2,3.19-1.33,4.53-2.1,2.22-1.04,4.1-3.44,6.16-5.07,3.58-3.5,4.18-6.65,10.15-6.57,2.71,0,5.24-1.49,7.09.1,1.35,1.35,1.15,3.53,1.53,5.32.37,3.71,2.21,7.76,6.46,6.99,1.76-.07,3.93-.21,5,1.43,1.45,2.28-.19,4.81-1.15,6.97-1.09,2.64-.62,6.05-1.64,9.08-2.25,7.21-6.48,8.48-3.84,16.35.52,3.82-1.71,5.35-4.87,7.69-3.18,2.75-5.51,5.08-6.8,8.83-.49,1.12-1.46,1.95-2.4.98-1.48-1.28-1.51-4.7-2.92-5.88-.54-.3-1.35.33-2.4,1.27-1.34,1.34-3.23,2.69-5.24,2.28-2.62-.29-3.74-3.51-2.03-5.41,1.39-1.66,3.34-2.68,4.86-4.81,2.29-3.28,4.22-7.66,6.49-10.66,5.24-5.23,2.9-5.18-2.07-1.53-2.63,1.79-4.39,5.27-6.11,8.02-1.03,1.63-1.41,3.26-3.62,5.06-2.27,1.78-4.99,3.69-6.73,5.94-1.38,1.36-5.31,8.14-7.38,4.97-.84-1.52.36-6.72-2.42-4.27-1.08.92-1.88,2.3-2.85,3.36-1.71,1.89-3.5,2.46-4.78,4-1.14,1.19-1.73,2.81-2.76,4.11-1.52,2-4.67,3.31-5.76,2.73-.9-.53-.45-1.59-.22-2.4,1.03-2.39,2.27-5.23,3.53-7.3,1.1-1.57,2.96-2.26,4.39-3.49,1.61-1.27,3.1-3.69,3.03-4.63-.09-.94-.87-.39-1.66.1-3.96,2.77-7.02,6.43-10.74,9.29-1.27.89-2.91,1.97-3.53,3.27-.59,1.19-.91,2.28-1.95,3.2-1.51,1.18-3.97,2.37-5.24,1.47-1.45-1.43-.57-5.11.55-6.81,2.63-3.22,8.98-15.82,7.16-14.28M48.33,10.88c-.92-.48-2.22.56-3.2.73-1.46.45-2.43.31-3.11,1.04-1.5,1.96-2.59,5.39-5.53,5.43-.88.03-1.67-.54-2.5-.36-1.01.47-.66,2.3-1.1,3.92-.66,2.29-1.24,5.62,2.24,3.31,3.33-2.76,13.31-9.42,13.24-14.01l-.06-.07h.02ZM171.84,27.76c-.51.04-.7.89-.14,1.08.81.26,1.06-.91.27-1.08h-.13ZM42.86,31.08c.41-.68.1-2.18-.76-2.41-1.24,0-.45,3.34.67,2.51l.09-.11h0ZM241.29,31.08c.41-.68.1-2.18-.76-2.41-1.24,0-.45,3.34.67,2.51l.09-.11h0ZM130.12,30c-.51.04-.7.89-.14,1.08.81.26,1.06-.91.27-1.08h-.13ZM239.04,34.48c.49-1.01-1.26-2.96-1.28-4.17-.2-.54-.91-.21-1.1.22-.57,1.06,1.14,4.45,2.31,4.02l.06-.07h.01ZM52.42,34.47c-.46.26-1.25,1.13-1.61,1.53-.38.79.56.7,1.16.1.47-.42,1.34-1.35.55-1.62h-.1ZM39.32,35.42c-1.58-.56-2.97,1.9-4.27,2.49-.87.43-1.86.86-2.49,1.68-.96,1.03-1.03,3.05.15,3.73,1.57.55,1.76-1.99,2.27-2.91.22-.31.71-.3,1.34-.52.62-.21,1.3-.48,1.9-.77.71-.35,1.27-.82,1.42-1.68.09-.61.17-1.5-.24-1.94l-.09-.07h.01ZM280.46,36.65c-2.18-.4-2.28.58-2.08,2.55.13,1.58.06,3.39,1.54,3.97.37.12.9.37,1.22.14.27-.69-.14-2.25-.13-3.23-.18-.93-.03-2.94-.45-3.39l-.1-.04ZM284.58,38.95c-.51.04-.7.89-.14,1.08.81.26,1.06-.91.27-1.08h-.13,0ZM274,48.05c1.68,1.34,3.78-2.36,3.57-4.86-.04-.25-.1-.64-.33-.76-1.72-.25-4.45,4.18-3.33,5.53l.09.09h0ZM27.04,47.82c.04-.69-1.15-1.95-1.73-2.16-.96-.28-1.63-.15-2.43.23-1.39.54-2.47,3.67-.25,3.27.89-.23,1.22-1.27,2.22-1.26.83-.04,1.91.19,2.14-.02,0,0,.05-.06.05-.06ZM268.37,52.34c.63-.61.38-2.27-.76-2.03-.67.21-1.55,1.05-1.59,1.81.17.44,1.77.5,2.27.29l.08-.07h0ZM258.2,53.47c.41-.68.1-2.18-.76-2.41-1.24,0-.45,3.34.67,2.51l.09-.11h0ZM279.53,51.23c-.68-.41-2.19-.11-2.42.75,0,1.23,3.37.45,2.53-.67l-.11-.09h0ZM46.14,53.45c-1.25-1.06-3.43,1.07-2.2,2.3,1.22,1.21,3.4-.93,2.32-2.19l-.12-.12h0ZM251.33,56.8c-1.25-1.06-3.43,1.07-2.2,2.3,1.22,1.21,3.4-.93,2.32-2.19l-.12-.12h0ZM272.72,72.61c.42-.65.93-2.65,1.35-3.72.31-1.06.84-2.16.98-3.04-.28.28-3.53,3.8-4.45,4.91-.88,1.35.88,2.45,2.04,1.9l.07-.05h0ZM249.18,71.39c.41-.68.1-2.18-.76-2.41-1.24,0-.45,3.34.67,2.51l.09-.11h0Z"/>
</svg>