<svg viewBox="0 0 700 1000" xmlns="http://www.w3.org/2000/svg" id="Layer_1"><defs><style>.cls-1{fill:#202020;}</style></defs><path d="M664.18,997.06c-43.03.26-95.77.57-152.19.91-28.32.17-57.55.35-86.95.53-7.35.04-14.71.09-22.07.13l-11.04.06-5.51.03c-1.84,0-3.67.07-5.52-.06-14.53-.64-29.01-1.28-43.34-1.91-8.57.66-16.76,1.29-24.88,1.91-40.21-.74-78.7-1.44-113.92-2.09-17.53-.34-34.25-.66-49.97-.97-1.97-.08-3.91,0-5.84.05-1.93.05-3.85.09-5.74.13-3.8.09-7.53.17-11.19.26-7.33.16-14.38.32-21.13.47-8.64.42-18.49.79-28.7,1.13-10.6.32-21.58.65-32.06.97-7.34-1.42-14.43-2.79-20.97-4.05,6.67,1.2,8.89,1.49,8.13,1.23-.38-.13-1.49-.4-3.17-.77-.84-.18-1.81-.38-2.9-.61-1.37-.27-2.89-.57-4.52-.9-4.13-.81-8.01-1.57-11.64-2.29C4.23,973.63,1.52,963.72,0,958.18c.13-2.82.22-4.73.29-6.07.06-.99.1-1.56.14-1.95.07-.79.13-.87.23-2.24.21-2.72.63-10.54,1.87-39.23.21-4.82.46-10.41.74-16.76-.71-10.95-1.55-24.06-2.53-39.22.66-15.94,1.39-33.82,2.18-53.04.39-9.52.78-19.37,1.19-29.47.2-5.05.41-10.17.62-15.34.09-2.59.23-5.18.29-7.8-.02-2.62-.05-5.25-.07-7.89-.4-42.28-.82-87.47-1.23-130.76-.85-86.57-1.71-165.54-2.17-198.39.41-41.64-.59-93.61-.46-134.41l-.14,4.11c-.06-8.49-.17-24.59-.31-45.55.92-12.89,1.98-27.69,3.13-43.68-.02-12.81-.03-26.4-.05-40.38.06-14.09.52-28.62.6-43.07.32-30.63.64-61.27.93-88.59,5.22-3.87,9.84-7.3,14.38-10.67,18.22-1.31,34.63-2.49,48.28-3.47,12.86-.89,23.11-1.61,29.86-2.08l-6.75.59c10.51-.64,18.16-1.15,24.18-1.59,3.01-.23,5.61-.44,7.96-.62,2.65-.23,5.01-.43,7.27-.62,1.38.11,2.73.23,4.07.34,1.07.08,2.14.16,3.23.25,2.18.17,4.45.34,7,.54,5.11.4,11.35.93,20.34,1.77-.6.05-.49.17.21.34.35.08.84.18,1.46.29.31.05.65.11,1.03.17.17.03.34.06.52.09l.14.05.1.02h.06s.23.02.23.02c.32,0,.66.02,1.01.03.7.02,1.44.03,2.23.05,1.57.03,3.31.05,5.16.08,3.7.03,7.85.05,12.04.08,8.37.02,16.87-.01,22.19-.06l-.55-.18c21.69-.15,70.82-.07,106.63-.44l-1.4-.45c29.87.1,86.02-.87,107.49-1.11,4.57-.08,9.36-.17,14.36-.26,2.5-.05,5.05-.1,7.64-.15,1.3-.03,2.61-.05,3.93-.08,1.32-.03,2.65.09,4,.13,10.74.49,22.17,1,34.05,1.54,11.88.55,24.21,1.13,36.75,1.71,12.33.61,24.87,1.23,37.39,1.85,8.49-.79,16.98-1.58,25.38-2.36,8.61-.76,17.14-1.51,25.5-2.25l9.43-1.18,33.95-.13,6.2.3s33.62,1.43,33.93,3.86c.33,2.75,2.9,33.87,2.77,36.26-.13,2.08-.25,4.02-.36,5.73l-.75,1.89c-1.58,25.59.13,25.51-.84,32.92-.34,8.57-.16,8.1,0,8.06.08-.02.16.08.16,1.46,0,.69-.02,1.71-.06,3.2.04,1.5.09,3.47.16,6.07,0,14.79-.3,34.22.2,51.22l.09-.3c1,41.33-.11,63.22.84,100.98l.13-4.06c.45,13.35.33,39.62.92,63.7-.18-6.87-.63-12.84-.53,1.63.64,27.69.51,46.57,1.14,66.81l-.08,4.86-.2,4.86-.41,9.71c-.38,24.02-1.05,65.7-1.85,116.24-.21,12.63-.43,25.82-.66,39.42-.11,6.8-.23,13.71-.35,20.7-.06,3.5-.12,7.01-.18,10.55,0,1.77-.11,3.54-.04,5.32.06,1.78.12,3.56.19,5.35.5,14.29,1.01,28.86,1.52,43.57.26,7.35.51,14.74.77,22.15.2,7.41.69,14.83.47,22.27-.53,59.48-1.06,119-1.51,169.75-.22,25.37-.43,48.55-.61,68.43-.07,9.94-.29,19.08.12,27.14.27,8.56.51,16.11.71,22.5-.37,1.94-.46,2.44-.55,2.93l.59-2.93-.06-3.27c.03.96.06,1.91.1,3.27-1.42,7.49-3.01,15.9-5.07,26.76-7.29-.75-17.42-1.78-28.74-2.94Z" class="cls-1"></path></svg>