<svg xmlns="http://www.w3.org/2000/svg" version="1.1" viewBox="0 0 207.67 49.39" preserveAspectRatio="none" fill="#ad9eda">
  <path d="M197.07,17.18c-.04-.38.08-.65-.2-.99.13,0,.28-.02.4,0-.02.3,0,.6,0,.9l-.2.1h0Z"/>
  <path d="M196.47,18.78v.6h-.4v-.6h.4Z"/>
  <path d="M198.66,18.97l.2.4-.2-.4Z"/>
  <path d="M198.06,18.78c.27-.15.46-.26.8-.2l-.2.4h-.5c-.14-.04-.08-.15-.1-.2Z"/>
  <path d="M200.46,45.23h.2v.6h-.2c0-.2.02-.4,0-.6Z"/>
  <path d="M196.87,25.34l.3-.2.3.3c.02.34.08.38-.2.5-.06-.15-.3-.71-.4-.6h0Z"/>
  <path d="M180.89,1.07l.3-.2c.13.03.09.19.1.2h-.4Z"/>
  <path d="M172.5,33.3c.09.03.27-.02.4,0-.11.49.16.79.2,1.19-.59-.15-.27-.78-.6-1.19h0Z"/>
  <path d="M197.27,25.94c.19.43.2.81.6,1.09l-.2.9,1.2-.2.6,1.69-.4.9v-.5l-.9-1.09-.5.9v.7c.08-.34-.31-.65-.4-.9-.11-.29-.12-.71-.2-.99-.05-.2.1-.43-.2-.6l.5-.1.1-.6-.4.3-.4.1c-.11-.3.2-.46.2-.5s-.35-.34-.2-.7h-.4c0-.2.02-.4,0-.6.05-.02.17.04.2-.1v-.5l.4.2-.2.8h.3c.07-.13.19-.15.3-.2h0Z"/>
  <path d="M118.77,43.84v-.6h.2c.02.19-.04.42,0,.6h-.2Z"/>
  <path d="M4.93,17.58c.01-.13-.03-.29,0-.4h.8v.4h-.8Z"/>
  <path d="M202.66,39.26l-.2-.6h-1c.05-.27-.03-.72-.3-.8-.1-.03-.5-.07-.5.1.15.28-.2.57-.2.6,0,.04.55.64,0,.7l-.2-.8h-.4l-.4-.7.8-1.59-.2-1.29-.2.5-.4.3-.2-.9c.06-.43-.2-1.73.3-1.89.46-.14.65.94.9,1.09-.4.38-.23.89.2,1.19,0,.06-.18.12-.2.2-.11.38.26.55.2.9h.4c-.15.65.35,1.03.4,1.59h.8l.5-.99.4.2.3-.3c-.02-.38.12-.77-.2-.99.3-.4.31-.82,1-.7-.05.54.08,1.17,0,1.69,0,.07-.18.12-.2.2-.11.47.19.71.2,1.09h-.4l-.2,1.59-.7-.99-.3.6h0ZM200.06,37.08v.4h.2v-.4h-.2ZM203.86,35.68v.4h.2v-.4h-.2ZM199.66,34.49h.4v-.2h-.4v.2Z"/>
  <path d="M203.66,30.31l.3.2.5-.6-.2,1.09c-.26.24-.42.57-.8.5v.1l.4.1.2,1.09-.2.5c-.3.11-.46-.2-.5-.2s-.2.31-.5.2c-.04-.48.06-1.02,0-1.49-.03-.2-.52-.84,0-1.19l-.2-.6c.39-.53,1.02-.35,1,.3h-.4v.4h.4v-.4Z"/>
  <path d="M200.46,28.72l-.4.2-.2-.9-.6.1.6-.5-.2-.9,1,.2c0,.16.03.35,0,.5-.02.13-.4.14.1.5l.9-.2-.2.99c-.51-.08-.74.53-.8.99l-.2-.99h0Z"/>
  <path d="M202.06,10.02l-.6.4.1-.6h-.3v-.6l.8.4v-.8h-.6l.2-.99h.3l.1-.4-.6-.4,1.2.2v.6l-.6.3c.22.14.25.62.5.7.12.03.28-.04.4,0,.34.1.33.67.3.99h-.4v.6h-.5l-.1.6-.2-.99h0Z"/>
  <path d="M203.26,27.73l-.8-.1.5-.9.5.8.2-1.29.2-.5.2.9.3.3c.21-.34.42-.07.5.2l-.6.1.2.5-.5.2-.3-.2-.2.8-.2-.8h0Z"/>
  <path d="M202.86,13.4l.2-.7.4.1.2-1.09-.2-.3h.4l.2-.4c.16.35-.2.66-.2.7,0,.07.19.12.2.2.09.53-.12.85-.2,1.29l-1,.2h0Z"/>
  <path d="M4.73,25.94l.4-.3-.2-1.09c-.35.06-.66-.2-.6-.6.44.42.65-.07.9,0l.7.4v.6l-.8.2.2.3-.6.5h0Z"/>
  <path d="M201.86,21.36c-.03-.55.13-1.11-.2-1.59h.8v-.4h.6v.99l-.6-.4.1.6c-.49.25-.02.95-.7.8h0Z"/>
  <path d="M199.06,23.35c.18-.29.26-.54.2-.9,0-.08-.2-.13-.2-.2,0-.03.25-.15.2-.6l-.4-.3h.5l.3.7-.2.3h.4c.08.65-.02,1.09-.8.99h0Z"/>
  <path d="M198.86,25.94l.8-.2v-.6l.3.2c.47-.57,1.17.53.3.4v.4l-1.4-.2h0Z"/>
  <polygon points="203.66 7.84 203.36 7.24 202.86 7.44 202.86 6.84 202.46 6.44 203.06 6.74 204.06 7.24 204.06 7.74 203.66 7.84"/>
  <path d="M205.65,38.07h-.4l-.4.4c-.02-.62.79-.71.6-1.39l.2.4h.4l-.2,1.19-.2-.6h0Z"/>
  <path d="M204.85,29.72l.2-1.59.4.4.4-.4v.8h-.6c-.05.38.25.93-.4.8h0Z"/>
  <polygon points="189.48 28.92 189.28 27.73 189.88 27.73 190.07 28.42 189.48 28.92"/>
  <path d="M200.66,34.89l-.2-.5c.27-.25.48-.4.4-.8l.6-.1-.6.99.8-.2.2-.4-.1.6h-.3v.4l.4.2-1.2-.2h0Z"/>
  <path d="M201.66,22.56l.4.6.4-.4.4,1.59c-.16.16-.76-.36-.8-.5-.05-.17.05-.43,0-.6-.03-.12-.38-.49-.4-.7h0Z"/>
  <polygon points="204.66 20.57 205.05 19.57 204.66 19.57 204.85 18.97 204.06 19.57 203.66 18.18 204.26 18.97 204.46 18.18 205.05 18.18 204.85 18.88 205.45 19.87 205.25 20.37 205.65 20.57 204.66 20.57"/>
  <polygon points="202.66 5.85 202.86 4.65 203.26 5.05 203.26 5.85 202.66 5.85"/>
  <polygon points="204.66 13.21 205.25 13.4 205.05 13.7 205.05 14.6 204.66 14.1 204.66 13.21"/>
  <polygon points="204.46 37.47 204.46 36.78 204.85 36.28 205.05 37.47 204.46 37.47"/>
  <path d="M203.26,24.54c-.02-.37.31-.56.2-.99h.4c.05.55.02,1.04-.6.99h0Z"/>
  <path d="M201.46,35.68c.62-.1.31.18.4.5.07.24.45.31-.1.7l-.3-1.19h0Z"/>
  <polygon points="203.66 15.39 204.46 15.2 204.46 15.79 203.66 15.99 203.66 15.39"/>
  <path d="M200.26,33.1c.06-.24.28-.3.2-.6h.6v.6h-.8Z"/>
  <path d="M201.26,20.96c-.78.11-.34-.67.2-.6v.99l-.2-.4h0Z"/>
  <path d="M201.46,24.94c-.07-.35.27-.45.2-.8h.1c.31.22.34.43.3.8h-.6Z"/>
  <polygon points="202.66 12.41 202.66 11.42 202.76 11.42 203.06 11.71 203.06 12.41 202.66 12.41"/>
  <path d="M200.46,23.35v-.8h.6c-.16.27-.26.46-.2.8h-.4Z"/>
  <polygon points="191.07 29.92 190.87 30.71 190.67 30.71 190.47 29.92 191.07 29.92 191.07 29.52 191.67 29.82 191.07 29.92"/>
  <polygon points="204.46 7.24 204.56 6.84 205.05 7.04 205.65 6.44 205.05 7.14 204.46 7.24"/>
  <path d="M200.26,12.21c.04-.24,0-.36-.2-.5l.4-.3.2.8h-.4Z"/>
  <polygon points="1.13 16.39 1.33 16.39 1.53 17.58 1.33 17.58 1.13 16.39"/>
  <path d="M201.66,18.97v-.4h.8c-.11.4-.42.45-.8.4Z"/>
  <path d="M1.93,17.58l.4.3c-.26.17-.21.4-.2.7h-.2v-.99h0Z"/>
  <polygon points="205.65 31.71 206.05 31.71 206.05 32.5 205.85 32.5 205.65 31.71"/>
  <polygon points="198.06 25.14 198.66 25.14 198.46 25.74 198.26 25.74 198.06 25.14"/>
  <path d="M199.06,24.35h.4v.8h-.2c.06-.34-.04-.52-.2-.8Z"/>
  <polygon points="205.25 27.13 205.65 27.13 205.65 27.73 205.25 27.43 205.25 27.13"/>
  <polygon points="201.46 4.65 201.46 4.25 201.76 4.25 202.06 4.55 202.06 4.65 201.46 4.65"/>
  <path d="M204.85,22.36l.4.3c-.2.14-.24.26-.2.5h-.2v-.8Z"/>
  <polygon points="202.66 21.36 202.66 21.06 203.06 20.77 203.06 21.36 202.66 21.36"/>
  <path d="M201.86,44.83l.4.3c-.2.14-.24.26-.2.5h-.2v-.8Z"/>
  <polygon points="199.46 31.11 199.86 31.41 199.56 31.71 199.46 31.71 199.46 31.11"/>
  <path d="M205.85,6.04c.06-.24.28-.3.2-.6h.2v.6h-.4Z"/>
  <path d="M205.65,23.15c-.02.13,0,.27,0,.4h-.4v-.4c.13,0,.27.02.4,0,.02-.13,0-.27,0-.4h.4v.4c-.13,0-.27-.02-.4,0Z"/>
  <path d="M197.86,26.14h.4c-.06.24-.28.3-.2.6h-.2v-.6Z"/>
  <rect x="201.66" y="37.08" width=".2" height=".6"/>
  <rect x="189.68" y="26.33" width=".2" height=".6"/>
  <polygon points="203.86 6.04 204.26 6.04 204.26 6.44 203.86 6.04"/>
  <rect x="198.86" y="31.51" width=".2" height=".6"/>
  <polygon points="205.25 15.39 205.25 15 205.35 15 205.65 15.39 205.25 15.39"/>
  <rect x="204.85" y="15.39" width=".2" height=".6"/>
  <rect x="199.26" y="38.87" width=".2" height=".6"/>
  <rect x="201.06" y="39.66" width=".2" height=".6"/>
  <rect x="200.06" y="39.46" width=".2" height=".4"/>
  <rect x=".73" y="21.76" width=".2" height=".4"/>
  <rect x="202.66" y="28.92" width=".2" height=".4"/>
  <rect x="203.26" y="18.97" width=".2" height=".4"/>
  <rect x="200.86" y="21.76" width=".2" height=".4"/>
  <rect x="205.25" y="38.87" width=".2" height=".4"/>
  <rect x="200.46" y="29.92" width=".2" height=".4"/>
  <rect x="205.25" y="29.92" width=".2" height=".4"/>
  <rect x="204.46" y="28.13" width=".2" height=".4"/>
  <rect x="189.88" y="27.13" width=".2" height=".4"/>
  <rect x="204.46" y="34.49" width=".2" height=".4"/>
  <rect x="199.66" y="11.81" width=".2" height=".4"/>
  <rect x="199.66" y="11.02" width=".2" height=".4"/>
  <rect x="198.26" y="44.24" width=".2" height=".4"/>
  <rect x="198.26" y="24.35" width=".4" height=".2"/>
  <rect x="205.05" y="9.23" width=".2" height=".4"/>
  <rect x=".73" y="9.23" width=".2" height=".4"/>
  <rect x="201.06" y="45.63" width=".4" height=".2"/>
  <rect x="196.87" y="46.03" width=".2" height=".4"/>
  <rect x="201.06" y="5.45" width=".2" height=".4"/>
  <rect x="201.86" y="5.05" width=".4" height=".2"/>
  <rect x="205.05" y="4.65" width=".2" height=".4"/>
  <rect x="204.46" y="4.65" width=".2" height=".4"/>
  <rect x="192.07" y="26.73" width=".4" height=".2"/>
  <rect x="204.26" y="33.5" width=".2" height=".4"/>
  <rect x="204.66" y="33.5" width=".2" height=".4"/>
  <rect x="194.47" y="26.33" width=".2" height=".4"/>
  <rect x="202.46" y="26.14" width=".4" height=".2"/>
  <rect x="198.46" y="2.27" width=".4" height=".2"/>
  <rect x="197.27" y="1.07" width=".2" height=".4"/>
  <rect x="176.89" y="48.42" width=".2" height=".4"/>
  <path d="M182.49,12.41v-.6l.6.4c.05-.31-.15-.39-.2-.7-.03-.18-.13-.76.2-.7l.4,1.59-.5.2-.5-.2h0Z"/>
  <path d="M182.68,14.2h.4c-.16.27-.26.46-.2.8h-.2v-.8Z"/>
  <rect x="184.48" y="12.21" width=".4" height=".4"/>
  <rect x="187.48" y="14.2" width=".2" height=".4"/>
  <rect x="182.88" y="12.81" width=".2" height=".4"/>
  <rect x="181.89" y="12.21" width=".2" height=".4"/>
  <rect x="180.69" y="11.42" width=".4" height=".2"/>
  <rect x="179.09" y="10.62" width=".2" height=".4"/>
  <rect x="182.09" y="10.02" width=".2" height=".4"/>
  <polygon points="176.89 38.07 177.09 38.07 177.49 38.87 176.89 38.57 176.89 38.07"/>
  <rect x="172.9" y="36.08" width=".2" height=".6"/>
  <polygon points="7.52 20.96 7.12 20.96 7.12 20.57 7.72 20.57 7.72 21.36 7.52 21.36 7.52 20.96"/>
  <rect x="7.92" y="20.57" width=".2" height=".4"/>
  <polygon points="184.28 28.72 184.68 29.02 184.68 29.72 184.28 29.42 184.28 28.72"/>
  <path d="M191.87,11.81h1c.06.4-.25.66-.6.6l.4.8-.7.4c-.62-.41-.13-.71-.1-.9.05-.27-.03-.61,0-.9h0Z"/>
  <rect x="191.47" y="14.6" width=".2" height=".4"/>
  <rect x="172.9" y="27.53" width=".2" height=".4"/>
  <rect x="12.12" y="20.96" width=".2" height=".4"/>
  <rect x="3.93" y="8.23" width=".2" height=".4"/>
  <rect x="195.27" y="21.76" width=".2" height=".4"/>
  <rect x="188.28" y="39.86" width=".2" height=".4"/>
  <g>
    <polygon points="191.27 22.16 191.27 22.16 191.27 22.15 191.27 22.16"/>
    <path d="M98.8,45.63c.16.06,1.48.06,1-.4l-1-.4v.8Z"/>
    <path d="M207.42,43.4h0c.14-.5.08-1.68,0-2.19-.06-.35-.07-.98.2-1.19l-.6-.7v.8l-.6-.4-.2.8c-.08-.6.16-1.12.6-1.49.08-.27-.34-.33,0-.7h-.6l.2.7-.2.5-.5-.2c-.15.12-.46.34-.6.4-.11.04-.26-.03-.3,0-.03.03,0,.49-.3.6l-.1-1.19-.4.5-.2.5h-.6c.06-.35-.27-.66-.6-.8l.2.8-.4.1.1.3h-.3l-.2.5.8.9-.4-.99c.16-.15.76.37.8.5.05.17-.04.43,0,.6.04.17.54.32.4.7l-.4-.4-1-.4v1.39c-.22.01-.37-.37-.5-.4-.48-.13-.81.28-1.3.2.2-.37.53-.48.4-.99h.4v-.8l-.6-.3v-.4l-.6-.1.4.9-.6.5c-.04-.29.06-.64,0-.9-.02-.08-.38-.51-.4-.6-.05-.17.05-.43,0-.6-.08-.27-1.21-.47-1-1.19.02-.08.53-.57.6-.8l-.4-.1c.32-.36.13-.72.2-1.09,0-.07.17-.12.2-.2.23-.72-.85-.94-1-.4-.04.13.04.28,0,.4s-.31.17-.2.5l.4.4h-.6l.4,1.19-.5-.8c-.14.14-.46.57-.5.7-.1.37.17.94-.6.9l-.2-.8-.1.6-.3.2h.4l-.2.3c.23.15.31.47.1.7l.1.6-.2-.4h-.8l.2.5-.2.2.2.2-.4.5c.15-.75-.47-1.19-.8-1.79h.8v-.4h.4l-.2-.3c.61-.54-.35-.81-.2-1.49l.6.1v.3h.2v-.4l.4.4.3-.8c.14.36.94.6.7.1-.1-.21-.32-.32-.2-.7l-.2.3c-.01.18-.58.12-.6.1-.02-.02-.08-.6.1-.6h.3c-.31-.52-.31-1.27,0-1.79h-.5l-.5-.6-.1.6-.5-.8c-.45.04-.41.08-.7.2-.11.04-.26-.03-.3,0-.03.03.01.49-.3.6l-.3-.8h.4v-.8h.6c-.03-.4.14-.85-.2-1.09.37-.24-.07-.3,0-.7.54.09.67-.69,1.2-.6l-.2-1.19-.2.8-.2-.4-.8.2.6-.9-.4-.1.4-1.39.4.1.4.3v-.8h-.4l.2-.8h-.6l.2.7-.8.3.1-1.19-.5.9c-.08.25.21.92-.2.9l-.4-1.49c-.02-.08-.2-.13-.2-.2,0-.05.64-.81-.2-.7l.2,1.59-.6-.2-.2-.4-.2.8-.6.3.2.2c-.11-.55.67-.22,1-.3l.2.7-.4.6.4.6c.12.4-.19.54-.2.6-.11.6.22.96.2,1.49h-.5l-.3.3v.5h-.8l.4,1.39c-.33.1-.45-.27-.7-.2-.1.03-.17.31-.5.2v-.99l-.6.2.2-.5c-.14-.32-.55-1.12-.6-1.39s.03-.62,0-.9c.75-.2.14.81.7.99h.4l-.1.6c.72.18.41-.9.1-.99h-.5v-.5l-.3-.3h-.5v-.6l.6.4v-.5l-.3-.3c-.24.37-.29-.06-.7,0-.16.17.34,1.64-.4,1.79v-1.39l-.6.4-.2-.7c.75-.51.04-1.39.9-1.89l.5.2-.2-1.19h.6v-.8l.6-.3-.2-.7.8.4.4,1.39-.4-.4v.5l.6.3.2.4.1-.6-.1-1.09-.4-.4.6.5.4-.3-.6-.7h.4c-.1-.33.14-.37.2-.5.08-.18-.17-.37.3-.3l.3.4-.4.4.6.3c.13.19-.52-.11-.4.4.04.19.25.09.4.1-.14-.39.36-.54.4-.7.13-.49-.32-.87-.2-1.39.02-.09.31-.18.2-.5h.4l-.2,1.19.4.2-.4.1c-.02.08-.03.15,0,.2.04.09.2.14.2.2,0,.03-.35.32-.2.6l-.4.3.6-.1v.9c.57.18.34-.5.7-.6.12-.04.28.04.4,0,.4-.11.76-1.01.3-1.29v-.2l.5-.7-.1.6h.4l-.2,1.09.4,1.29.6.2-.2-.8-.4-.3c.12-.15.23-.22.4-.3-.04-.32.04-.49-.2-.8h.4c-.08-.27.47-.87.7-.99.48-.24.25,1.02.7.99l-.2-2.39-.6.2v1.19l-.4-.5-.2-.7-.1.8.1.6h-.8c.28-.32.13-.61.2-.9.02-.07.16-.12.2-.2.04-.11-.03-.27,0-.3.03-.03.48.02.6-.3v-.9h.6l.6.6.1-.6c.4.32.4.49,0,.8-.17.18.19.46.4.4.57-.18.05-.74.1-.9l.6-2.09c.31.06.4.36.5.6.12.31-.01.64.3.6-.02-.46.14-.9-.3-1.19l.1-.4c-.23.04-.65-.07-.8,0-.02.01-.12.35-.3.4-.77.21-1.34-.52-.5-.99-.02-.05.04-.16-.1-.2h-.5c.18-.69-.34-.84-.4-1.39-.64-.19-.48-.82-.9-1.19l-.1,1.29-.3.7c-.35-.26-.46-.61-.1-.9l-.2-.2c.45-.32-.04-.49,0-.9.37.06.66-.22.6-.6l.4.4-.2-2.19.6-.2v.6h.4v.6h-.4c.1.55-.15.92-.4,1.39l.8-.6c-.08.32.2.36.1.6-.02.04-.1.05-.1.2.08.01.17-.02.2.1l.2.5v-.8s.21.05.3,0c.4-.23.12-.75.7-.6l-.6,1.69.2.7.3-.2.5.2.2.4.2-.3.4-.1c-.4.05-.66-.25-.6-.6h-1c-.02-.32-.09-.46.3-.4.31.05.36.2.4.2.26.06.62-.04.9,0l-.2-.9.2-.3h-.4l-.4-1.39.4.6.5.2.7-.2.2,1.09.5.9.3-.9-.2-.2-.2-1.29c.36-.04.11.3.3.6.07.11.28.22.3.3.13.47-.28.81-.2,1.29h1.4l.2.8.2-1.39-.4.2-.2-.99-.2.4h-.6v-.6h.8c.17-.44-.35-.86-.4-1.09-.09-.38-.06-.55-.2-.99-.11-.37.26-.56.2-.9l-.4.4-.5-.2-.3.3v.5l-.8.2.1.6-.3.4c-.06-.46-.29-1.07-.8-.99v-.99l-.4.2c-.06-.54-.43-1.21-1-1.19l.2-.8h-.8v-.6h.8c-.18.56.71.6.8.9.1.35-.27.83.4.7l-.2-1.19-.3.2-.3-.3v-.6l.5-.7h.7l-.4.3v1.09h.4v.4l.6-.2-.6-.8,1.2.2-.6-.4-.4-1.29.6-.5-.4.9.5.3.5-.2c.21-.51-.35-.73-.4-.9s.04-.42,0-.6c-.02-.09-.31-.18-.2-.5h.3l.1-.4h.4v.3l.4.1.2-.6-1.6.2-.4-1.39c-.32.28-1.29.84-1.2,0l.6-.1-.2-.7,1.4.4v.4h.2l.1-.4c.75.07-.23-.93-.4-1.19l-.5.8c.11-.8-.11-.48-.3-.6-.07-.04-.3-.26-.3-.3-.07-.24.19-.74-.2-.7l.2,1.09-.5.7-.3-1.59-.5.6-.3-.6h-.6l.2-.99-.7-.2c-.24.35-.24.06-.5,0l.2,1.19h.6v.8l-.4-.2c-.03.29.04.63,0,.9,0,.08-.18.12-.2.2-.08.35.03.62.2.9h-.6c.03-.23-.04-.5,0-.7.15-.71,0-1.04,0-1.89h-.6v-.6c.38-.05.66.22.6.6h.2c.13-.4-.13-.53-.2-.7-.04-.11.03-.26,0-.3-.02-.02-.4.05-.5-.2-.3-.08-.58.35-.5.6h-.4l.2.99-.2-.4h-.4l-.2.4c.13-.64-.45-1.03,0-1.59h-.4v.5l-.3.3-.5-.2c.06.38-.22.66-.6.6l.2-.2-.2-.3.4-.7c-.59-.15-.57.57-.6.6-.03.02-.43.03-.6.2.12-.31-.24-.92-.5-.99-.37-.1-.5.2-.8.2l-.1-.6-.2.4h-.6v-.4h-.8v.4l-.5.2c-.33-.46-.48-.03-.6,0-.25.06-.62-.04-.9,0l-.2-.6c.15.57-.34.3-.6.7v.5l-.2-1.19.4-.2-.9.2-.9-.4c-.1.38.15.58.2.9.03.18.13.76-.2.7l-.4-1.39-.3.2c-.32-.45-.49.04-.9,0v.4h-.4l-.2-.4-.1.4h-.3c.11-.39-.14-.34-.2-.4v.6h-.4v-.6l-.6.6-.1-.6-1.1-.2c.05.37,0,.69-.4.8v-.99l-.3.4-.7-.2v-.4l-.7.4c-.68-.42-1.84-.33-2.6,0l-.6-.2-.7.2-.1-.4c-.3.46-.88.49-1.4.4-.07,0-.12-.18-.2-.2-.39-.12-.53.19-.6.2-.2.04-.48-.03-.7,0v-.4c-.49.51-1.3,0-1.5,0-.27,0-1.1.42-1.4,0l-.4.4-.4-.2-.2.2-.8-.4-.6.6-1-.4c-.41.27-1.12-.37-1.6.4-.43-.25-1.2-.64-1.6-.2l-.4-.2c-.31.44-.59-.12-1.1,0l-.1.4c-.52-.45-1.54-.05-2.2-.2-.8-.18-2.01,0-2.8-.2-.2-.05-.48.03-.7,0v.4l-.3-.2c-.13.02-.28-.03-.4,0-.61.17-2.83-.04-3.4-.2l-.8.2-.2-.2-.4.2-.4-.4-1.8.4-.6-.4c-.38.34-.9.49-1.4.4-2.49-.45-5.23-.09-7.19,0l-.7-.2-.2.8c.14-.94-.22-.46-.7-.6-.1-.03-.27-.32-.4-.4l-.6.4-.2-.2-.4.2-.2-.2-.4.2-.4-.4c-.77.42-2.22.41-3,.2-.31-.08-1.31-.15-1.8-.2-.99-.09-2.1.07-3.1,0V.02h-.8v.4h-2.2V.02h-.4c.06.52-.41.71-.9.6-.39-.09-.7-.15-1-.2-.42-.07-.96.05-1.4,0l-.1-.4-.4.4V.02h-.6v.6c-.33.11-.4-.17-.5-.2-.19-.05-1.33.31-2,.2-1.2-.2-3.1.08-4.39,0l-.8-.2-.4.2-.2-.2-.8.2-.2-.2-.6.4-.4-.4c-.3.31-1.1.31-1.4,0-.54.24-.41.16-.8,0-.11-.04-.3,0-.3,0l-.4-.4-.1.6-.2-.2c-.72.32-1.42-.17-2.2,0-.88.2-1.8-.07-2.8.4l-.4-.4c-.28.3-.38.08-.8.2-.23.07-.47,0-.6-.2l-.3.6-.2-.4-1.5-.2-.2.2-.2-.2-.6.4-.4-.4c-.49.24-.4.06-.6,0-.29-.08-1.66.32-2.4.2-.86-.14-1.75-.15-2.6,0-.36.06-.61-.02-.9-.2l-.1.4-.2-.2c-.83.33-1.97-.36-2.8.2l-.7-.4v.4c-.3.11-.47-.2-.5-.2-.19,0,0,.14-.6,0-.3-.07-.83-.05-1,.2l-.4-.2-.1.8-.5-.8-.2.2c-.55-.45-1.15-.64-1.6,0-.61-.16-1.4-.15-2.2,0-.06.01-.12.15-.2.2l-.1-.4-.5.2c-.78-.37-1.33.12-2,0-.08-.02-.18-.31-.5-.2v.4h-.4v-.4c-.44-.08-.63.07-.9.4-.97-.16-1.99-.17-2.8-.4-.4-.11-.54.19-.6.2-1.19.21-3.13-.28-3.99,0-.65.2-.88-.22-1.4.2-.44-.6-.87-.31-1.4-.4-.76-.12-1.81.38-2.6.2-.66-.15-1.46-.16-2,0-.35.1-2.23-.31-3-.2-.99.15-2.1.34-3,0l-.6.4c-.58-.16-2.42-.5-3-.4-.97.16-2.73.32-3.79,0-.38-.11-.68.34-1.1.2v-.4l-.9.4c-.98-.14-2.52-.4-3.6,0l-.4-.4c-.55.47-1.48-.06-2.1.4v-.4l-.9.2-.6-.2-.6.2-.5-.2-.1.4c-.08-.05-.14-.2-.2-.2-.99-.12-2.28.03-3,.2l-.2-.2-.6.2-.6-.4-.6.4c-1.83-.67-4.37.16-6.39-.2-.89-.16-2.66-.09-3.2,0-.36.06-.99.07-1.2-.2l-.6.4c-.07,0-.12-.19-.2-.2-1.61-.27-3.77-.27-4.99,0-.4.09-.93-.18-1.2.2l-.3-.2c-.13.16.32.98-.4.8l.2-.99c-.4.03-.86-.13-1.1.2l-.5-.2-.2.99-.2-.99h-.8l-.1.4L4.88.03l-.1.6-.9-.2.4.2c.07.24,0,.55-.3.4-.2-.1-.4-.51-.47-.8-.08.01-.15.03-.23.04v.37h-.1l-.3-.3v-.04c-.31,0-.62-.02-.93-.06-.13.13-.29.23-.47.29,0,0,0,0,0,0-.23.85-.77,1.56-.6,2.59,0,.08.2.13.2.2l-.6.8c.24.66.38,1.77,0,2.39v.2l.6.3-.2,1.59.5-.6c.26.07.93-.2.9.2l-.4.1v.7l-.4-.2v.8h-.4v.7l-.4.3-.2-.8c-.02.54-.1.95.4,1.29l-.4.99.6.7h-.4c.04.41-.05.88,0,1.29.02.12.34.48.2.99-.04.15-.5.31-.4.6l.9.3c.67-.49-.02-.57-.1-1.09-.06-.39.08-.32.4-.3v.8h.4v.4l-.4.4.6.6.2-.6h.6l-.2.6h.4v-.4l1-.2-.5.8h-.5c-.15.38.17.59.2.7.04.14-.36,1.01-.4,1.19-.07.32.16.74-.2.99l.6-.1c-.11.53.34.83.6,1.29-.21.46.05.84,0,1.49-.32-.05-.73.36-1.2.2v.8h.4l.3.6.5-1.09c0-.17,0-.34,0-.5.22.03.42.33.8.2l.3.6.1-.8.4.6h.6v-.3l.4-.1c-.21.51.35.73.4.9.08.28-.29.57-.6.5l-.2-.6-.2.9c.42.31-.16.73,0,1.29h-.4l.2.9-.6.3v-.6l-.4.7.2.4-.3.3-.5-.2v.4h-.8l-.2-.99h.6l-.2-.8.4.6.7.2.1-.6-1-.4-.2-.99-.8.4v.4h-1v-.6l1,.2.2-.8-.5-.2-.4.2-.4-.4-.6.2-.5-.3.4-.1c-.15-.38.35-.53.4-.7.08-.3.04-.48.2-.9h-.4v-.6h.4l.3-.4.3.4c-.15,0-.33-.1-.4.1-.07.19-.13.33-.2.5.36-.03.47-.22.8-.2l.4-.8h-.4v-.6l-.5.2-.7-.4.2-.7-.4-.4.2-.9-.4.5c.36.74-.34,1.6-.2,2.19.02.08.19.13.2.2.05.33-.03.74,0,1.09h-.4c-.24.7.32,2.07.2,2.49-.06.23-.59.33-.4,1.19.14.64-.11.93,0,1.59.02.13.39.14,0,.4l.2.99-.2.2.4.1-.4.9c.57.38-.09,2.38,0,2.49h.2c-.03-.07.02-.28,0-.4h.6v.3l-.3.3c-.06-.16-.3-.18-.3-.2.42.93-.1,1.12-.2,1.49-.12.42-.15,1.21,0,1.59.36.9.1.89,0,1.59-.14.94.06,1.53-.2,2.39-.15.49.57.66.4,1.39-.02.08-.19.13-.2.2-.04.25.04.56,0,.8-.01.08-.31.18-.2.5l.4.1-.2.9h.4v.8h-.4c-.14.48.13.83.2,1.09s-.18.32-.2.4c-.12.51.2.76.2.8s-.31.2-.2.5c.7-.07.63.83,1.1,1.19.23-.34.63-.16,1-.2l.1-.4.2.4h.4l.3-.6.9.2v-.4l.5.2.6-.2,1,.4.8-.6c.63.35,1.41.44,2.2.4l.3.6c.39.03.06-.68.5-.8.19-.05.48.03.7,0v.4h.4v-.4l1.5.4c.37-.16.74-.12,1.2-.2,1-.18,1.56.24,2.4,0,.34-.1.82.36,1.3.2v.4h.4v-.4h.8v.3l.4.1.4-.6.1.6c.26.03.56-.05.8,0,.07.02.12.18.2.2.38.11.61-.31,1-.2.08.02.14.2.2.2.04,0,.34-.35.7-.2v-.4h.2v.4h1l.4-.4-.2.8.6-.1v-.2l.4-.1.4.4v.6c.4,0,.02-.56.5-.8.4-.2.27.32.3.5l.4.1.2-.5.5-.3c.35.33.98.11.9.8h.4v-.6l1.1.2.6-.4c.45.64,1.2.44,1.8.2l.1.6.5-.6.7.2v.4h.4v-.4l.7-.2.2.2.5-.2v.6l.3-.4h1.1v.4h.8v-.4l1.4-.2v.6h.8l.2-.4.1.4h1.1v-.3l.4-.1.4.6.1-.6.5.1v.3h.2v-.4h.8v.4h.6v-.4h.4l.2.4.1-.4h.3l.2.4.3-.6c.24.3.76.3,1,0l.3.6h.4l.3-.6c.44.05.99-.07,1.4,0,1.07.2,2.52.01,3.6.2.76.13,1.55-.3,2-.2,1.02.24,1.99-.32,3,0,.61.2.26.08.6,0,.49-.11,1.17-.02,1.1.6.39.08.12-.52.2-.6l.5.2.4-.4c.68.12,2.02.56,3,.4.25-.04,1.04-.26,1.4-.2.46.08.82-.15,1.2.2.34-.51,1.03-.47,1.6-.4,1.43.18,2.88.04,4.19.2.91.11,3.64-.08,4.19-.2.55-.12,1.11.08,1.6,0,.33-.05.75.04,1.1,0v.4l.9-.4c.26.31.94.31,1.2,0l.7.4v-.4l.7.2.2-.2.4.4c.97-.41,1.96-.35,3.1-.4v-.4h1.2v.4l.5.2.3-.6.2.4h.4v-.4h.4l.2.4.1-.4h.3l.1.4.2-.4.1.6.4-.6.5.6c.07,0,.12-.19.2-.2.43-.07,1.45.12,1.8.2.94.21,1.7-.26,2.8,0,.47.11.71-.2,1.1-.2v-.4h.4v.4c.39.01.63.31,1.1.2.08-.02.13-.19.2-.2.46-.07,1.02.05,1.5,0l.2-.4.1.4c.26.03.56-.04.8,0,.08.01.13.2.2.2.63.08,1.75.05,2.4,0,.07-.01.13-.2.2-.2.41-.04,1.23-.06,1.6,0,.08.01.13.2.2.2l.5-.6.1.4c.26.03.56-.04.8,0,.08.01.13.2.2.2s.12-.19.2-.2c.33-.05.75.04,1.1,0v-.4h.4v.4h.4v-.4h1.2v.4h.4l.2-.4.1.4h.3v-.4h.4v.4h.4v-.4h.2v.4l.7.2c.23-.35,1.12.08,1.4,0,.61-.18,1.54-.05,2.2-.2.5-.11.76.2.8.2.03,0,.2-.31.5-.2l.1.4c.56-.88,1.37-.05,2-.2.97-.23,1.72-.2,2.6,0,.37.08.79,0,1.1-.2l.1.4c.08-.05.14-.2.2-.2.74-.09,1.69.12,2.4,0,.6-.1.56.11,1,.2.2.04.48-.03.7,0l.2-.4.1.4,2-.4.2.2.5-.6.1.4c.26.03.56-.04.8,0,.08.01.13.2.2.2,1.35.17,2.22-.04,3.2-.2.51-.08,1.01.05,1.4.4l.6-.4,1.5.4.1-.4.9.8.3-.8.6.4,1-.4c.21.34.45-.12.9,0l.1.4c.27-.35.55-.5,1-.4.63.14,1.11.08,1.8.2,1.22.22,2.67-.54,3.4.2.29-.42.69-.48,1.2-.4.38.06,1.6.2,2,.2.17,0,1.22-.25,1.4-.2.08.02.14.2.2.2l.2-.2.4.4,1-.2.4.2.6-.4c1.12.52,2.34-.21,3.6,0,.08.01.13.2.2.2l.3-.6h.6l.2.4.1-.4c.37-.05.87.07,1.2,0,.25-.06.59-.17.8-.2.43-.07,1.32-.08,1.6.2.48-.26.45-.03.6,0,.15.03.34-.02.5,0v.4h.2v-.4h.4v.4h.3l.2-.4.1.6.6-.2v-.4h.4v.4c.35.04.77-.05,1.1,0,.08.01.13.2.2.2s.12-.19.2-.2c.39-.06.89.04,1.3,0v-.4h.2v.4l.8.2v-.6l.4.4h.2c-.06-.35.27-.66.6-.8l-.2.8.2-.4.5-.2.6.8.2-.99.3.99.6-.3v-.5l.5.2,1-.2.3.6h.6v-.8l.3.2c.33-.46.47-.03.6,0,.41.09.96-.16,1.2-.2.27-.05.61.03.9,0l-.2-1.19.3.2-.1.2c.38-.05.66.22.6.6l.9.2.5-1.09-.2-.7-.5.2c-.43-.3-.17-.35-.11-.61l.21.21h.2l.4-.4.3.8.3-.8-.6-.3.2-.7.4.4h.6v-.6l.6.3v.9h.6c.11.45-.18.97-.7.8-.45-.14-.18-.78-.4-.99-.74.56.08.81.1,1.39l-.6-.4v.6h-.4v.8l.4-.4v.4c.38-.14.59.17.7.2.21.06.52-.34.9-.2v-.4h.4l.2.4.4-.4.1.8.1-.8c.4-.03.86.13,1.1-.2l.2.2.8-.6,1,.4.5-.4v1.19l.6-.2c.04-.42-.23-.93.4-.8v.8l.2-.6h1.2l.2.8c-.11-.72.07-.49.5-.8l.3.2v-.4l.7.4c.31-.28.51-.7,1-.6l.1-.4c.43-.07-.05,1.08.5.8.16-.08.33-.38.5-.5v-.2c-.32-.27-.48-.46-.4-.9l.5-.2.3.6h.56v.22h.4v-.2c1.01-.05.63-1.15-.2-1.19v-.4c-.26,0-.88-.25-1-.5-.15-.3.16-.37.4-.3l.2.4.2-.8,1.2.2v.5l.6.1-.6.4c.03.23-.04.5,0,.7.02.1.29.66.4.8l-.2.7.4-.1v-.3h.6l.1.4.3-.5c-.37-.54-.54-.11-1-.1l.1-1.19.2.6h.9c-.07-.55-.52-.6-.4-1.19l.6-.2v1.39c.48-.04.83.02.8-.6h.4v-.4h.8l.2-1.19c.86-.13.04.59.2.8l.4.4-.6-.1-.2.5h.4l.3.6.1-.4.7.4.4-.4.5.2v-.99l.6.6v-1.19c.55-.1.4.17.4.6h.2c-.05-.12.03-.42,0-.6h.8v.5l-.3.3c-.13.04-.49-.18-.5-.2-.01.4-.09.73.3.99l.2-.4.33.07v-.32h.2v.37l.37.08c.16-.48-.3-.95-.2-1.29ZM197.86,13.4h.6c-.15.29-.23.6-.5.8h-.1v-.8ZM199.46,6.94l-.6.3v-.9l-.4-.3c.58-.04.72.56,1,.9ZM198.06,7.53l-.2.5h.8c.06.25-.05.41-.1.6-.06.22-.05.45-.3.4v-.81h-.6l-.2-1.19.6.5ZM1.93,7.84h-.4c-.06-.38.22-.66.6-.6l-.2.6ZM23.5,9.03l.7.99.2-.2.5.2v.6c-.4.03-.42-.3-.8,0v-.59l-.7-.2.1-.8ZM22.9,5.85h.4c.11.43-.22.62-.2.99h-.2v-.99ZM19.91,11.01h.4l.2.8h-.8s.2-.8.2-.8ZM16.51,26.15l.7-.2.5.5.2,1.09.6-.4-.4,1.39-.2-.6-.6.21c-.09-.71-1.02-1.17-.8-1.99ZM16.71,27.93l-1,.2.4-.2.2-1.19.4,1.19ZM18.41,26.93l.2-.2,1.2.2.5.8-1.6-.2s-.3-.6-.3-.6ZM19.11,19.57c.65-.03.84.6.3.99-.38-.25-.31-.56-.3-.99ZM18.11,19.77h.8l-.1.6h-.3l.6,1.19h-.4l-.2-.99h-.4v-.8ZM17.11,16.39l.4.49c-.16.26-.31.24-.5.3-.24.08.08.47-.3.4l.4-1.19ZM16.71,22.15v-.4l.5-.2.5.3-.2.9-.6-.2c-.14,1.08.44,1.2,1.3.8l.7-.6.2,1.19h-.8l.2.3-.6.7.2-.99-.4.39h-.5l-.3-.8-.4.1v.3h-.6v-1.79h.8ZM16.11,18.17v.6l.4.2h-.6v.3l-.4.1-.4-1.2h1ZM15.51,11.81c.06.38-.22.66-.6.6l-.2-.8.8.2ZM15.21,12.81c.14.05.15.42.3.6-.66.12-.77-.3-1-.8.26-.01.46.12.7.2ZM11.12,13.21h.4v.39h.8s-.4-.39-.4-.39l.2-.5-.2-.9.2.8,1-.4c-.05.32.08.81,0,1.09-.05.17-.55.32-.4.7l-1.4.4.2-.79h-.4v-.4ZM11.52,16.78l-.2.4.6.4c.3.06.24-.31.2-.5-.06-.3-.24-.4-.2-.7l.2.4h.4v-.4h.4l.4.4c-.34.37-.42,1.04-1,.99.18.39-.2.85-.2.9,0,.07.19.12.2.2.04.21-.02.48,0,.7l-.5-.2c-.29.29-.6.46-.5.9-.31.1-.04.92-.5.7-.59-.28-.32-1.88.2-2.19.18-.05.56.39.7-.1.11-.38-.26-.55-.2-.9h-1.5c-.38-.05.1-.82.4-1,.15-.09.41.17.3-.4l.4.1v.3h.4ZM9.72,7.34l.5-.3.3.3-.2.5h-.4l-.2-.5ZM10.12,4.45h-.4l-.2-.49.4-.5.2.99ZM9.92.87l-.2.6h-.4c-.06-.38.22-.66.6-.6ZM9.52,4.65h1.2s0,.79,0,.79h-.4v.4h-.5l-.1.4-.4-.3.2-1.29ZM5.62,13.41l-.3-.3v-.2l.6-.5c.01.43.08.75-.3,1ZM5.53,14c.06.38-.22.66-.6.6l.2-.6h.4ZM4.73,5.44h.8c-.02.23.04.49,0,.7-.02.13-.26.13,0,.6l-.4.7.2-1.59-.6.19v-.6ZM4.33,1.47v.99l-.6-.99h.6ZM4.33,2.66v.8h-.4v-.8h.4ZM1.53,9.83l.3.2c.13-.18.4-.33.5-.5.09-.15.17-.67.2-.7.04-.04.77-.02.6-.6h.2l.4.4-.1-.6.1-.98-.8.4c-.07-.46.18-.47.5-.6.2-.08.1-.25.1-.4.39-.08.12.51.2.6h.6l-.2.99h.4l-.2,1.79-.6-.6c.06.38-.23.66-.6.6l.2.8-.2-.6-.2.4-.4-.4c.03.65-.49.65-1,.6v-.8ZM2.73,11.02c.08.29-.21.68-.5.6l-.3-.3v-.5l.8.2ZM4.13,13.6v.8c-.28.04-.65-.06-.9,0-.12.03-.27.46-.6,0l-.2.2-.7-.2v-.32l-.4.1.2-.99.2.4h1l.2.4c-.07-.52.09-1.02.5-1.39l.1.7-.2.7.2-.4.7-.4.9.2-1,.2ZM4.93,20.77c.02-.38-.31-.57-.2-1,.52-.09.52.39.8.7l-.6.3ZM6.83,22.38c-.08,0-.65.57-.9-.2l.4-.4h-.8l.2-.3c-.37-.29-.25-.77.2-.9l.2.99.1-.8c-.34-.31-.6-.49-.5-.99h.6c-.04-.42.45-.58,0-.9,0-.07.18-.12.2-.2.11-.38-.25-.54-.2-.9l-.9.4c-.22-.16-.34-.39-.5-.6-.01-.01-.17.03-.2-.1l.2-.3c.07-.26.17-.16.1-.4-.06-.21-.31-.61.1-.6-.17.98.38.46.9.6.17.05.32.55.7.4v.6l.8.2c.16-.17-.57-1.39-1-1.19v-.99c-.13-.02-.27,0-.4,0l-.2-1.39,1.2.2v-.4h.6c0,.21-.18.14-.1.4.18.57.01.67-.1,1.19l-.2-.4-.8-.4v.8c.13.02.27,0,.4,0v.4h1c.03.22-.05.51,0,.7.06.24.44.75.4,1.09h.4v.6l-.8.2-.2-.6-.1.4h-.2l-.1.8.3-.4h.3l.1.8.9-.4-.1.4h.3c.15.64-.33,1-.4,1.59l.6-.4.2.6c-.68-.12-1.15.27-1.8.2l-.2.8c-.36.15-.66-.2-.7-.2ZM7.32,25.14v-.99l.7.2.5.6.2-.5.4-.5-.2,1.39c.18.19.96-.49.8-.8l1.2-.2-.2-1.19.4.4h.4v.5l.3.3.4-.2.1.4.8-.2c.11-.1-.37-.4-.4-.5-.12-.43.2-.71.2-1.09l-.7.6-.3-.6h-1.2l.8-.5-.2-.7h.4l-.2-.99c.4.32.4,0,.5,0,.23-.02.47,0,.7,0v-.8l-.4.1c.58-.42.41-.68.2-1.19l.6-.5.2,2.59.5-.2.5.5-.6.5-.2-.6-.1.6-.7-.6.2,1.09.3.3.3-.2v.6h.4c.15.38-.35.53-.4.7-.12.44.2.71.2,1.09l-.3-.2-.3.8-.6-.6v1.19h-.4c.08.45-.43.82-.8.5l.6-.4.2-.9h-.8v-.4h-.6l-.2.8.6-.4.2.99-.8-.2c.06-.35-.2-.66-.6-.6v.8l.4.4-1.2-.6.4.4v.6h-1v-.69l.4.1-.3-.99-.9.2.2.99c-.52.17-.29-.12-.4-.3-.14-.22-.25-.21-.4-.6-.07-.2-.25-.09-.4-.1-.08-.39.52-.12.6-.2ZM12.32,30.71h-.4v-.4h-.4c.11-.48-.71-.57-.1-.99l1.3.7c-.11.6.29,1.02.6,1.49l-.7.2c-.11-.15-.38-.22-.2-.4.18-.18-.19-.24-.1-.6ZM13.71,25.74l-.4.2-.2.8-.2-.6h-.4l.3-.4.2.2.7-.2ZM10.72,34.49v.8h-.7l-.1-.8.4.4.4-.4ZM6.72,30.31v-.6h.8l-.2-.7.8-.1-.22-.37,1.42.18-.3.2-.1.6.6-.2.2.99-.4-.8c-.51.47-.91.44-1.6.4l-.7,1.39.1-.99-.6.8c-.63.13-.36-.38-.4-.8h.6ZM7.92,33.49h-.4c.13.5-.82,1.15-1,.5-.15-.52.48-.61.4-1.09l.2.4c.3-.25.52-.14.8-.2v-.02c-.1-.37-.47-.59.1-.99l.9.2v.6c-.38-.05-.63.13-1,.2.03.11-.01.27,0,.4ZM8.72,35.08h.6v.6h-.6v-.6ZM4.73,28.91h1.4c.11.3-.2.46-.2.5s.31.2.2.5c-.77.11-1.48-.08-1.4-.99h0ZM3.93,29.51l.2.8h-.4c.04-.24,0-.36-.2-.5l.4-.3ZM4.13,31.31h-.4l-.2-.8c.5-.04.67.32.6.8ZM3.33,29.32v.4l-.7.2-.1-.4.8-.2ZM2.53,30.31h.2s0,.69,0,.69l-.4.3c-.11-.43.22-.62.2-.99ZM1.83,29.52c-.03-.18-.33-.61.1-.6-.09.44.24.65.2,1.09-.04.35-.24.54-.59.5l.39-.29c.07-.26-.06-.5-.1-.7ZM1.33,25.34h.4c-.08.3.14.36.2.6h-.6v-.6ZM1.53,31.4l-.2-.7h.6v.8h.4v.8h-.3l-.1.6-.2-.8-.6.2c-.08-.44.08-.64.4-.9ZM1.73,38.07h-.2v-.99h.4c.11.43-.22.62-.2.99ZM1.93,41.06h-.6v-.3l.3-.3.3.3v.3ZM2.13,40.26h-.4v-.6h.6c-.06.24-.28.3-.2.6ZM3.73,43.45h-.2c-.11-.3.2-.46.2-.5s-.31-.2-.2-.5h.4s-.2,1-.2,1ZM3.73,37.87l-.8-.4v.6h-.2l-.2-.6h.4l.2-.6-.6-.3c.04-.44-.31-.7-.2-1.19.02-.09.31-.18.2-.5h-.4l.3-.6.5.9-.2.7c.45-.05.88.17,1.2.5l-.2,1.49ZM3.53,34.09l.2-.98-.3.4c-.2-.28-.35-.31-.6-.4-.22-.08-.05-.59-.1-.8l.4.6.4-.4v-.3l.6-.1c.18.65.4,1.35,0,1.99l.6-.7v-.4l.4-.5-.1.8c.34.61-.38,1.13-1,.99-.09-.02-.18-.31-.5-.2ZM5.83,45.04c-.16-.14-.27-.35-.5-.4-.02.12.01.27,0,.4h-.6l.6,1.09c-.02.43.2.82-.4.7v-.7c-.47-.32-.44-.65-.4-1.19.21-.29.45-.37.8-.3.05-.26-.01-.4.3-.6l.5.7-.3.3ZM6.52,41.95l-.3.3-.3-.3v-.3h.6v.3ZM9.92,38.77c-.38.22-.41-.23-.8.1v-.8l.5.6.3-.6c-.09.33.38.48,0,.7ZM10.52,42.05c.14-.4-.36-.55-.4-.71-.08-.28.05-.76,0-1.09.83-.09.13.45.2.7l.2.5h.4c.01.43.15.7-.4.6ZM10.72,36.27h0v.5c-.25.38-.57.31-1,.3l.2.8-.3-.4c-.22-.11-.31.18-.4.2-.18.04-.43-.05-.6,0-.26.07-.63.68-.5.99l-.8.2.2.8h-.3l-.1.6h.8v-.4h.5l.3.4.2-.5.4.1.2-.4.2,1.19-.7-.4c-.6.41-.79,1.12.1,1.19v.2h-.4v.4c.49-.05.67.31.6.8l-.3-.4h-.3l-.2-.99-.6.3c-.05.18.39.57-.1.7-.19.05-.48-.03-.7,0l.2-1.79-.4.6-.4-.6h-.6l-.2,1.39-.6.3.4.9-1,.2.4-.3-.4-.1c-.09-.54.1-.93.2-1.39-.43,0-.7.15-.6-.4.11-.1.31.38.4.1.14-.43.31-.49,0-.9h.7l.9-1.59h.8v-.23h-.6c.06-.24.28-.3.2-.6h.4v.6h.2c.01-.42.08-.74-.3-.99l-.4.2-.6-.4-.7.2v.8h-.6l.2-.5-.6-.3v-.8l.6.2.1-.4.4.2.6-.99-.1-.8c.66-.15.46.7.2.9.33.27.48.46.4.9.62-.48,1.04.07,1.7,0l.8-.99.3.8.6-.8.2.8c-.15-.55.45-.35.7-.8.24.36.34-.08.7,0l-.6.4ZM4.13,39.66v-.4h.4l.4-.4.1.6c.21-.34.43-.18.3.1-.08.17-.25.21-.4.6-.07.2-.25.09-.4.1v-.6h-.4ZM11.72,34.49h.6v.8h-.5l-.3-.3.2-.5ZM12.52,41.46l-.6-.3.2-.49-.4-.4.6.4v-.8h.6l-.4,1.59ZM13.42,33.1c-.42-.04-.38.06-.1.3l-.6.1c-.11-.39.26-.47.4-.7.02-.04-.03-.13,0-.2.08-.22.59-.05.8-.1l-.5.6ZM13.71,28.03c-.1.34.13.69-.4.99v.2c.35.29.32.6-.2.5l.2-.89c-.1-.31-.78-.22-.6-.6.11-.22.55-.57.8-.5l-.2-.99.3.2c.37-.21.23-.45.3-.7.02-.08.2-.13.2-.2,0-.04-.36-.35-.2-.7h.8c-.03.23.04.5,0,.7-.15.74,0,.67,0,.99,0,.04-.35.34-.2.7l-.3-.2c-.1.16-.47.39-.5.5ZM15.11,38.17c-.1.22.16.39-.4.3l-.2-1,.8.2c.1.33-.14.37-.2.5ZM16.71,41.15c-.09-.66.27-1.06.2-1.69h.6s-.4.39-.4.39c-.15.36.2.66.2.7,0,.07-.18.12-.2.2-.11.38.26.55.2.9-.37.05-.55-.14-.6-.5ZM17.41,43.44l-.3-1.39c.47.1.33.41.4.69.09.38.31.4-.1.7ZM17.51,30.31h-.4v.4h-.3l-.1.4-.2-.4-.4.4.2-1.79-.8.2-.2-.99.5.4c.18.09-.04-.61.4-.4.37.17.78.95.7,1.39.42.01.14-.41.1-.6-.04-.17-.17-.36-.1-.6h.6c.03.4-.14.85.2,1.09l-.2.5ZM18.31,35.28l.2.7-.4.3-.2-.99h.4ZM18.31,43.45l-.4-.5v-.49l.6-.2-.2,1.19ZM19.31,39.26l-1.2.2v-.6l.4.4c-.16-.35.2-.66.2-.7s-.35-.35-.2-.7l.7-.4.5.9c-.33.27-.48.46-.4.9ZM20.31,32.11l-.9.2-.3-.8c.33.25.54.18.9.2.32.02.57.17.3.4ZM20.51,24.35c-.4-.11-.45-.43-.4-.8h.4v.8ZM20.5,19.37v-.8h.4l.2.8h-.6ZM22.3,9.64v-.4l-.4.4.4-.7-.6-.7h.8c-.09.54.1.93.2,1.39h.4v.4h-.4v-.39h-.4ZM23.7,42.25c-.24-.06-.3-.28-.6-.2v-.4h.6v.6ZM23.3,19.57l-.2-.99-.4-.3c.21-.21.27-.43.5-.1l.7-.4-.2.8h-.4c.24.34.85,1.06,0,.99ZM24.3,19.37h-.4v-.8h.1c.3.22.35.43.3.8ZM25.3,17.49c-.03.11-.33.36-.5.3l-.49-.79h.39c.04-.42-.23-.93.4-.8-.17.45.3.95.2,1.29ZM25.1,14.6c.08-.54-.71-.98-.6-.2l-.4-.3c0-.07.18-.12.2-.2.15-.52-.57-.68-.4-1.29l.4.6.4-.4c-.03.4.31.42,0,.8h.4c-.09.41.95,1.03,0,.99ZM25.5,11.32l-.3.3-.3-.3v-.5h.6v.5ZM27.1,6.45c-.47.09-.81-.17-1-.6.47-.09.53.49,1,.4v.2ZM27.3,11.52l.2-.5h.2l.2.8-.6-.3ZM28.29,26.73l-.2-.99h.4l.2.99h-.4ZM42.08,19.37h-.6c-.06-.38.22-.66.6-.6v.6ZM43.97,10.82c-.35-.33-.97-.11-.9-.8l-.4-.2c.56-.03,1.12.13,1.6-.2l.2.9s-.5.3-.5.3ZM49.87,5.25c-.4-.11-.45-.43-.4-.8h.4v.8ZM74.83,45.63h-.2v-.99h.4c.11.43-.22.62-.2.99ZM80.02,44.64h-.4v-.4h-.5l-.3.4c-.07-.46.18-.47.5-.6.22-.09.06-.41.1-.6l.2.6h.4v.6ZM87.02,44.84c-.08.1-.53-.35-.4-.6h-.4v-.2h.5l.3.3v.5ZM87.81,44.04l-.8-.2v-.79h.8v.99ZM89.81,44.04l-.6-.2.3-.6.3.3v.5ZM92.01,42.85l-.2-.6.8-.2-.6.8ZM92.41,5.05h-.2l.2-.99h.4l-.4.99ZM94.21,6.04h-.4v-.8h.4v.8ZM96.9,5.45h-.1v-.8h.4c.04.37.01.58-.3.8ZM104.79,44.83h-.6l.2-.8h.1c.3.22.35.43.3.8ZM105.59,44.93l-.6.1.4-.5v-.4c-.18-.14-.4-.36-.42-.59.09,0,.19-.01.28-.02l.34.61v.8ZM111.78,46.62s-.21-.05-.3,0c-.48.27-.1.8-.5.8l.2-.99h.3s.3-.41.3-.41v.6ZM125.76,45.23c.11-.4.43-.45.8-.4v.4h-.8ZM126.76,47.62h-.4v-.8h.6c-.16.28-.26.46-.2.8ZM127.66,2.67h-.1v-.8h.6c.08.38-.26.54-.5.8ZM141.54,4.25h-.8l.2-.49-.2-.2.8-.7v1.39ZM142.14,3.26h-.2v-1h.2l.2.5-.2.5ZM142.94,46.03l-.2-1c.53.12.27.64.6.9l-.4.1ZM144.14,45.23l-.8.4.2-.8-.4-.1.4-.5c-.04.24,0,.36.2.5.28.2.5-.04.4.5ZM144.34,45.83l.2-.6h.4c.06.38-.22.66-.6.6ZM149.13,46.43c-.05-.38,0-.69.4-.8l.2.8h-.6ZM151.53,44.83h-.4v-.8h.1c.3.22.35.43.3.8ZM151.53,5.05v-.99h.6c-.38.35.11,1.13-.6.99ZM153.13,6.44l-.8-.2v-.4l.8.2v.4ZM156.32,42.25h-.4v-.8h.4v.8ZM155.72,7.44v-.4l-.4-.1-.6.1.4-.2v-.4h.2v.4h.6v-.6l-.4-.2.8.2-.2.7.4.1-.1.4h-.7ZM156.72,46.83h-.2v-.7l.4-.3c.11.44-.22.63-.2,1ZM157.12,6.84l.2-.8-.4-.1.4-.7c-.16.78.22.47.6.9l-.8.7ZM160.21,43.25l-.3-.3.3-.7h.5c.1.5-.16.69-.5,1ZM161.61,4.26l-.3-.3.2-.7h.2l.2.7-.3.3ZM163.71,41.65l-.8-.2v-.99l.3.2c.07-.11.28-.22.3-.3.07-.24-.19-.74.2-.7v1.99ZM164.11,2.47c-.38.05-.66-.22-.6-.6h.6v.6ZM189.87,36.29l.2.4h.4c-.16-.32.63-1,.8-.8v.99h.4v.8c-.82.18-.67-.58-1.2-.8v.61l-.8.2.3-.8-.1-.6ZM192.07,40.26l-.8.4-.4-.9c.58-.87,1.23-.36,1.2.5ZM190.67,39.66h-.6v-1.1c.01-.23-.13-.55.2-.5l.4.4v.4h-.4l.4.8ZM187.48,33.3h.4v-.41h.4v.4h-.4l.2.3-.2.7c.57-.1.4.2.4.6l-1-.6.2.6-.4.1.2.2c-.51.33.07.76,0,.99l-.4.5v-1.49c-.3-.17-.14-.4-.2-.6-.08-.28-.62-.38-.9-.3-.34.09-.18.66-.5.6-.03-.22.05-.51,0-.7-.02-.08-.17-.12-.2-.2-.04-.12.04-.28,0-.4-.1-.36-.98-.89-1.4-.7v-.5l-.6-.3v-.6h.4l-.2-.4h.6l.2-.4.4.8c-.11-.33.18-.41.2-.5.1-.45-.18-.69-.2-1.09-.56-.06-.31.03-.4.3-.22.68-.5.5-1.2.5l.4-1.99.6.8.2-1.59s.38.38.6-.1c-.53-.29-.3-.65-.4-.99-.03-.11-.31-.17-.2-.5l-.6-.4c.34-.06.6.09.9.2.21.08.06.42.1.6l.2-.5.8-.1-.6.2.2.5-.4.4.4,2.29.5-.2.3.5-.2.5h-.4c.31.42.51.61.4,1.19h-.5c-.38.25-.31.56-.3.99.43,0,.75.08,1-.3.1-.2.38.15.4.2.11.4-.19.54-.2.6-.06.32.04.74,0,1.09l.6-.2v-.4h.4l-.4-1.19.4.6h.3l.1.4ZM185.68,41.65l.4-.2c-.3-.41-.51-.62-.4-1.19.51.14.41.58.4.99.62-.4.65.29.6.8h-.6v-.3l-.4-.1ZM184.48,37.86h0c.26.05.54,0,.8.01v.8l-.6-.6-.4.4c-.06-.29.11-.38.2-.6-.54-.06-.52-.42-1-.4-.07-.4.37-.46,0-.7l.2-.7h.4c.02-.22-.36-.37-.4-.5-.12-.43.2-.71.2-1.09v.5c.5.33.42.73.4,1.29h.8v.6l.8-.2.4,1.49-.3.5-.1-.8c-.39.04-.83-.37-.8-.8l-.4.1c.09.31-.1.46-.2.7ZM183.88,34.29l.4-.8.2.4h.4l-.3.6-.7-.2ZM186.28,37.58l.2-.5h.2l.2.99h-.4l-.2-.49ZM186.48,39.46v-.8h.1c.3.22.35.43.3.8h-.4ZM183.08,16.17h1l-.4.7.2.6-.4.6.2.8-.4.1-.1-.41h-.3v-.4h.4l-.2-1.99ZM184.28,20.58h.4l.2.99c.48-.09.32-.48.4-.7.02-.07.16-.1.2-.3h-.4v-.6h.4c-.02.2.04.43,0,.6.27.01.54,0,.8,0l-.6.2c.03.29-.05.63,0,.9.01.07.17.12.2.2.12.38-.33.54,0,.9h-1.4l.6-.6-.4-.1v-.3h-.6l.1-.4h.3c0-.3-.14-.48-.2-.79ZM185.08,17.98h-.6c.03-.22-.05-.5,0-.7.02-.08.27-.14.2-.4-.05-.2-.57-.57.2-.5l.2.9c.07.28-.34.33,0,.7ZM186.88,30.71h-.6c0-.23,0-.47,0-.7-.01-.23-.14-.75.2-.7v.9l.4.5ZM186.68,16.19c.67-.14.3.35.4.69.06.2.24.11,0,.6l.4.5c-1.16.14-.74-1.01-.8-1.79ZM183.28,24.94l.6.1.4-.9-.6-.2.7-.6.1.7.4.1-.2.4h.6v.8l-1.2-.2v.5l-.4.1v-.6l-.4-.2ZM183.08,24.15l-.4-.3v-2.09h.4v-.8l.8-.2-.1.6h-.3l.2.8h-.6l.4.2-.2.79-.3.2.1.8ZM183.68,22.86l.4-.5v1.19h-.7l-.1-.39c.32.02.47.08.4-.3ZM184.28,20.58c-.2-.01-.4,0-.6,0l.2-.6h.4c.02.2-.03.42,0,.6ZM182.89,21.57c-.6,0-.74-.37-.4-.8h-.4c-.03-.37.41-.22.6-.1.32.19.18.59.2.9ZM182.49,22.75v.8h-.4v-.8h.4ZM182.59,31.51c.38.25.31.56.3.99l-.8-.2c.15-.29.23-.59.5-.79ZM187.38,23.15c-.19.08-.32.33-.7.2l.4-.7.6.1c.08.57-.08.31-.3.4ZM189.08,25.94l-.4-.6h-.4s.2-.79.2-.79l.2.4h.6l-.2.99ZM190.48,22.35l-.2-.6c-.88.09-1.11-.59-1-1.39-.4-.02-.13.64-.2.9l-.8.6.1.5-.1.8-.6-.7v-.91h.4v-.9l-.4-.3.2.9-.6.3v-.6h-.4v-1.59h.3l.1-.4.4.4v-.4h.6l.2.6.4-.6.3.99.5-.3.5-1.09c.29.2.32.5.4.8.05.18.17.36.1.6-.05.05-.35-.3-.7-.2-.4.12-.24.65-.3.9-.03.11-.35.34-.2.7l.5-.6c.48.42.56.99.5,1.59ZM193.07,21.86h0l-.2.3v-.3l-.6-.3c-.16.61.45.7.4,1.19h-.4l-.2.8c-.72.17-.3-.78-.4-1.19l.6-.2c-.33-.02-.67.02-1,0,.02.21-.04.34.2.49l-.4.5-.2-1.39.2.4h.2c-.03-.26.02-.54,0-.8h-.6c-.17-.16.38-.8.4-.9.14-.6-.6-1.21.1-1.69l.4.2c.31-.43.59-.45,1.1-.4v.8h-.4c0,.46.01.93,0,1.39.4.2.45.34.4.8l.7-.2.1.4-.4.1ZM192.27,16.19v-.8h.4v.8h-.4ZM193.47,20.47c-.02.32-.17.57-.4.3.02-.49-.02-.99,0-1.49.02-.32.17-.57.4-.3-.02.49.02.99,0,1.49ZM194.87,22.35l.5.4c.46-.09.29.25.3.6l-.6-.1-.4.1-.2,1.49-.6.1c-.04-.3.14-.41.2-.7.07-.31.18-.89,0-.99l.2-.5-.6-.3c.23-.48.56-.05.6-.1v-.8l.6.2.2-.8c-.04.23,0,.37.2.5.41.27.75-.19.6.7l.2-.6.4.6-1.6.2ZM196.07,18.78v-.02c.31-.29.08-1.1.8-.99v.4h.4v.6c-.08.1-.53-.35-.4-.6h-.4v.6c.74-.02.17.33.6.7l-.2.5h-.3l-.1.4c-.15-.01-.33.1-.4-.1-.2-.57-.45-1.1-.4-1.69l.4.2ZM195.87,20.56c-.07.35.27.45.2.8h-.4l-.2-.8h.4ZM195.47,18.58h0l-.6.3v1.09h-.6c-.12-.5.45-.78,0-1.09l.2-.3c-.67.13-.47-.54-.1-.8l1,.4.1.4ZM194.47,17.48l.3-.7.3.7-.3.3-.3-.3ZM195.67,15.79h-.2c.1-.49-.16-.78-.2-1.19h.4v1.19ZM196.07,12.5c.07.52-.04.94-.6.9l.2-1.2.4.3ZM195.37,3.26c.43.28.29.71.3,1.19h-.4c-.05-.49-.47-.79.1-1.19ZM194.07,5.45h.4c0-.26-.15-.85.2-.8l.3.6h.4c.11.25.68.1.5.5-.14.3-.5.34-.8.3l-.1-.6-.2.4c-.24,0,.12-.36-.3-.4v.6h-.4v-.6ZM193.47,6.05l.2,1.19-.79-.4.59-.79ZM191.27,3.25h.4l.2.7-.4.3-.2-.99h0ZM190.67,7.84v-.6h.6v-.3l.4-.7c.05.49.03.79-.4,1.09l.2.2-.2.4.4.1-.2.6h-.8l.4-.79h-.4ZM189.68,1.87l.6.49-.2.2.2.7-.4.4-.4-.5.2-1.29ZM189.88,4.25l-.2.8-.2-.4-.4.4-.2-.8h1ZM189.68,7.84l-.5.99-.3-.99h.8ZM189.47,14.99l.2-.8-.4-.2.6-.1.6-.3-.4.6c.42.02.49-.37.8.1l-.2.6.2.5h.2v-1.8l-1.2-.2.2-.3-.2-.6.3-.3.6.2,1.1-1.59h-.4l.2-1.19-.6.4v-.4h.4l.3-.6.5.9v.8l.4.3.2-.4.1.4h.3v.6c.35-.06.66.2.6.6.55-.06,0-.66,0-.7,0-.07.19-.12.2-.2.09-.51-.26-.79-.2-1.29l.8-.2c.17.36-.25.93-.2,1.09.02.08.16.11.2.2.04.09-.01.21,0,.3h-.4l.2,1.39.8-.4-.2.8h-.3l-.1.4-.6-.4.2.8-.8.2-.2-.8c.05.32-.2,1-.4,1.19h.4v.4h-.4v-.4s-.16-.03-.2,0c-.06.06.18.59-.4.4l.2-.8-1-.2.6.4-.2.99h-.8v.6l.4.2c-.51.12-.79-.44-1.1,0l-.1-.4-.7.2-.7-1.39.6.4ZM183.88,4.24c-.03.43.44.59,0,.9l.2.9h-.4l-.2-1.4-.2.6-.4-.6,1-.4ZM182.09,5.34c-.02.43.19.82-.4.7.16-.35-.2-.66-.2-.7,0-.06.29-.32.17-.65l.43.65ZM180.49,1.87h1v.8l-.8-.2.2.8-.4-.5v-.9ZM180.09,9.03h.4c.04.37.01.58-.3.8h-.1v-.8ZM179.89,7.84l-.2.8h-.2c.06-.34-.04-.53-.2-.8h.6ZM179.48,9.83h0l.2-.6.2,1.19h.6l.1-.6.9,1.59.6-.4.2.6-.2-.99h-.4v-.6h-.6l.6-.8.1.6.8-.2c.22.25.57.41.5.8l.4-.4v.4h.4l-.2.99.4-.4.8-.2c-.05.37-.01.58.3.8l.7-.2.2-.5-.4-.8.3-1.09.1.7.4.4-.2.8.2.5c-.57-.03-.59.7-1.2.2l-.2.8,1.2.2-.2-.7.4-.1.1.4h.5v.99h-.2v-.38h-.4v.4h.4c-.25.23-.2.66-.2.99.78-.48,1.69-.14,1.6.8l-.4-.4v1.39l.4-.8h.6l.2.99-.3-.2c-.39.25-.31.58-.3.99l-.7-.99-.3.8-.2-.99-.3.2c-.37-.21-.23-.45-.3-.7-.02-.08-.2-.13-.2-.2,0-.04.31-.2.2-.5l-1.2-.2.6,1.59h-.8l.2-.9-.4-.5-.2.9-.3.5-.5-.6-.3.6-.4-.99-.6,1.19-.6-.4c-.43.38-.13.76-.9.6v-1.09l.2-.2-.4-.6.4-.2.3.3.7-.7-.2-.7-1.2.4.4-.99h-.4v-.8h-.8c.16.32-.62,1-.8.8l.4-1.59-.4.4h-.6v-.6l-.4-.1c.44-.28.38-.97,1-.9ZM179.29,19.78c.31-.38-.03-.4,0-.8.32-.02.14.37.5.6.05.03.15-.03.2,0,.38.24.31.57.3.99l-.6-.2v-.59h-.4ZM178.69,16l.4-.1-.2-.5.8-.2-.6,1.59-.4-.79ZM178.89,22.56v.8c-.4-.11-.45-.43-.4-.8h.4ZM179.09,13.4l.5-.2.3.3-.2.5h-.4l-.2-.6ZM177.89,7.83h.4v.8h-.4v-.8ZM178.49,15.2l.6-.6-.4.4v.8l-.5.2-.5-.3.2-.7.6.2ZM177.69,2.66l-.2.6-.2-.4h-.5l-.1-.6,1,.4ZM177.29,16.68l-.4.3v-1h.4l-.2.3.2.4ZM176.29,15h0v-.9l.4-.5-.1.8c.22.36.21.72-.3.6ZM176.69,9.82v.79c-.3-.32-.55.06-.6,0l-.2-.7.8-.1-.2-.99.6.9-.4.1ZM176.89,6.84l.2.9-.4.1-.4-.8.6-.2ZM175.49,8.23h.4v-.4h.4v.4h-.4c.13.25-.32.7-.4.6v-.6ZM173.1,2.46l.5-.19.5.99h-.4v.99c-.83.05-.42-.73-.8-1.09l.2-.7ZM172.5,7.04v.8h-.4c-.05-.38,0-.69.4-.8ZM170.8,6.83l-.1-.4,1.2-.2-.2.8h-.4c-.18.39.2.85.2.9,0,.06-.17.11-.2.2-.1.29.23.61-.4.5l-.2-1.1.4-.7h-.3ZM171.9,12.5l-.4.7h-.2v-1l.6.3ZM169.9,6.24c.38-.05.66.22.6.6h-.6v-.6ZM168.5,7.43l1-1.19c.13.49-.14.54-.3.8-.23.38.04.5-.7.4h0ZM166.01,41.46l-.5-.9.2-.7c.57-.13.38.34.5.8.11.42.2.51-.2.8ZM167.11,42.45h-.4s0-.09,0-.09l.5-.9.1,1.39-.2-.4ZM167.31,28.63l.2-.9c.38-.03.22.68.1.8l.1.8-.4-.7ZM167.51,43.84l.3-1,.5.5-.8.5ZM168.9,16.39v.4h-.4c.06-.54-.25-.5-.6-.6.07.27.57.75.3,1l-.7-.4v-.6s-.21.05-.3,0c-.31-.18-.34-.47-.3-.8l-.6.4h0v-1.19l.6.4c-.1-.33.14-.37.2-.5.1-.22-.16-.39.4-.3-.46.46,0,.84,0,.9,0,.05-.34.31-.2.8.08.28.41.25.6.3-.03-.11,0-.27,0-.4h.6v-.6c.38.05.66-.22.6-.6h.4l-.2-.4.8-.2-.4.5.6,1.29-.6-.4.2.8-.2.6-.3-.4h-.5ZM170.1,30.71h-.4v.4h-.4c-.08-.38.26-.54.5-.8l.3.4ZM170.1,40.96c.02-.09.02-.31,0-.4-.04-.16-.38-.14,0-.4l-.3-.7-.5-.2c.01-.14-.09-.35.1-.39.51-.11.17.36.4.4l.5-.4c.16.35-.2.66-.2.7,0,.18.26.6.2,1.19-.04.39-.16.56-.2.9-.78-.33-.06-.48,0-.7ZM171.1,43.44v-.4l-1-.2.3-.6.5.2v.4l.8.3-.6.3ZM172.3,39.46h-.4v-.99h.4v.99ZM172.9,40.26l-.4-.5v-.49h.3l.3-.4-.2,1.39ZM172.9,25.05l-.3.3-.5-.5.2-.5-1,.2.9-.6.5.6.1-.6.5.5-.2.5.4.2-.6-.1ZM173.7,16.39h.4l-.1-.4.1-.6.6.4-.2-1.39-.2.8-.4-.3.2-.4c-.34-.25-.52-.56-.4-.99.02-.08.25-.35.4-.2.14.14.43-.22.8-.1l-.2,1.19.8-.4.1.6h.5l-.2,1.39-.8-.2v.6h-.4c.09.52-.39.52-.7.8-.3-.22-.35-.43-.3-.8ZM174.7,44.03c-.62.05-.65-.44-.6-.99h.4c-.02.37.31.56.2.99ZM174.7,21.56v.8h-.4c-.05-.38,0-.69.4-.8ZM174.7,37.08h-.2v-.7l.4-.3c.11.44-.22.63-.2,1ZM175.1,21.76l-.2-.8-.4.4-.4-.6,1.2-.2v.8l.4.2-.6.2ZM175.99,22.56h-.1v-.8h.4c.04.37,0,.58-.3.8ZM177.29,46.43h-.4c-.05-.38,0-.69.4-.8v.8ZM176.99,22.36l-.5-.8h.5l.3.3-.3.5ZM176.69,20.77l.3-.4.1-.4.6.4-1,.4ZM178.19,35.88c-.23-.06-.86-1.4-.7-1.59l.5.19.5-.2v.5l.8.9-1.1.2ZM179.49,43.24h-.2c.11-.22-.45-.95-.4-.99h.6v.99ZM179.29,37.18l-.1.9-.4-.6.3-.5-.2-.9.6.9-.2.2ZM179.69,24.35v-.71c-.25-.32-.63-.74-.1-1.09l.3.9c.28.24.44,1.07-.2.9ZM181.69,38.48l-.4-.1v-.3h-.2v.4l-.5.2-.5-.7.2-.2-.2-.7.4.4h1.2l-.2.4.4.1-.2.5ZM182.09,38.88h0l.4-1.99s-.38.38-.6-.1l.4-.1v-.4h-.4v-.6h-.4c-.16-.55.24-.62.4-.9.05-.1-.04-.26,0-.3.03-.03.39.07.6-.3v-.1c-.35.06-.66-.2-.6-.6l1,.4.2-.5,1-.1-.6.2-.2,1.59-.6-.6.2,1.49c-.16.28-.12.97,0,1.39.07.24.6.24.2.7,1.07-.07,1.4-.01.5.8l-.7-.2.2.6h-.6v.02l-.4-.4ZM182.48,43.06v-.8l.79-.2-.39.4v.3l.4.3h-.8ZM187.88,44.25l-1-.2-.2-.6.2,1.19h-.3l-.2.4-.4-.99.1-.6-.5.6-.1-.6-.6.4c-.1-.36.18-.4.3-.6.24-.38-.18-.42-.1-.8l-.5.6-.3-.6-.2.3-.4.1-.2-.8h-.2s-.2-.79-.2-.79l.4-.1-.2-.2.2-1.09.2.8h.4l.2,1.39h.8v-.3l.4-.1c.09.55-.53.95.1,1.39l.1-.6.3.4.5-.4v.6l.5.2.9-.2.2.5-.2.7ZM186.88,42.05v-.7l.4-.3.1.4.5.1-.8.9.2-.8-.4.4ZM188.68,45.23h-.4c-.11-.43.22-.62.2-.99h.2v.99ZM189.08,44.83l.1-.8-.1-.1.6-.5c.08.37-.12.56-.2.9-.08.34.22.6-.4.5ZM190.67,41.67h0s-.4-.01-.4-.01v-.6h-.2v.41l-.7.2-1-.6-.5.2.2-.7c-.26-.41-.75-.13-.6-.7l-.8.6.5-.8.7-.3-.6-.1v-.6h.4l-.4-1.19h.4l.2-1.19.4.7v.5l-.6.3.4.1-.2,1.29.5.5.4-.4.5.2v.99h-.4v.6l.5.2c.17-.25.41-.22.7-.2v-.59l.4.3v.5h.4l.2.99-.4-.6ZM192.07,44.64c-.36.04-.11-.3-.3-.6-.21-.34-.49-.26-.11-.79h-.39l.2-.3c-.21-.14-.4-.5,0-.5-.1.55.17.4.6.4l.2.99h-.4l.2.8ZM192.27,41.06h-.6c-.06-.38.22-.66.6-.6v.6ZM192.27,37.07h-.2l-.2-.99.6.29-.2.7ZM192.07,33.5v.6c-.52.04-.67-.34-.6-.8l1.1-.39.3-.4c-.06.46-.29,1.07-.8.99ZM192.67,37.66h0l.2-.99.6.5-.4.5.1-.61-.5.6ZM193.47,40.26h-.4l-.2-.8h.5l.3.3-.2.5ZM194.67,36.28l.3.4h.2l.2-.4.3.5c-.5.62-1.12.25-1-.5ZM193.87,35.88l.6.5c-.02.43.2.82-.4.7l-.2-1.2ZM197.62,44.65h.1c.3.22.35.43.3.8h-.6c-.07-.35.27-.45.2-.8ZM196.87,42.45h-.4c.16-.28.26-.46.2-.8h.4l-.2.8ZM197.66,40.46v-.59l-.4-.1.6-.3.2-.6c-.09.54.1.93.2,1.39l-.6.2ZM201.06,43.44h.4l.2.8c-.27-.05-.77-.64-.6-.8ZM204.86,43.84h-.4v-.8h.6c-.16.28-.26.46-.2.8Z"/>
    <polygon points="191.67 43.24 191.66 43.25 191.67 43.25 191.67 43.24"/>
    <polygon points="172.3 24.35 172.3 24.35 172.3 24.35 172.3 24.35"/>
    <path d="M195.82,33.89v.3l.8-.1c.1-.2.38.15.4.2.06.22.06.54.2.8l-.4.7.6.3-.2.9c.38.04.15-.45.2-.7,0-.03.18-.48.2-.5.03-.03.48.02.6-.3.11-.28-.36-.45-.4-.6-.08-.28.05-.76,0-1.09l1,.99c.02-.35.02-.64-.1-.99-.22-.64-.38-.94-.5-1.49-.05-.24.06-.59,0-.8-.08-.3-.98-.35-.8-.9-.37.04-.58,0-.8-.3l.4-.7h-.4v-1.79h-.8c-.07.38.32.06.4.3.07.22.2.38.2.4.06.32.06.81-.2.99.15.17.15.82,0,.99v.5l-.6.4.2.6c.78.16.47-.22.9-.6l.6-.2.1.4h-.4l-.2.5.2.7-.2-.4h-.6l-.2.99-.8-.2c.02.2-.03.42,0,.6.21.02.56-.1.6.1Z"/>
    <path d="M198.42,46.25v-.4c-.2,0-.4,0-.6,0-.05.24-.03.36-.2.6,0,0,.8-.2.8-.2Z"/>
    <polygon points="207.05 44.64 207.25 44.64 207.25 44.61 207.05 44.56 207.05 44.64"/>
    <polygon points="12.12 40.66 12.12 40.67 12.12 40.67 12.12 40.66"/>
    <path d="M195.22,33.79h-.2v-.4h-.2l.2.8c.13,0,.27,0,.4,0,0-.17-.16-.2-.2-.4Z"/>
    <polygon points="3.73 7.05 3.73 7.05 3.73 7.05 3.73 7.05"/>
  </g>
  <rect x="7.52" y="24.54" width=".4" height=".4"/>
</svg>