<svg viewBox="0 0 700 1000" xmlns="http://www.w3.org/2000/svg" id="Layer_1"><defs><style>.cls-1{fill:#2c222e;}</style></defs><path d="M4.5,723.55c-.31,31.68-2.92,173.34-4.5,265.38,4.03,2.53,9.13,5.74,12.88,8.09,27.86.02,56.2.02,78.99-.05l-6.77-.11c40.91-.3,35.14-.29,72.58,1.45-4.54-1.02,33.15-.17,47.52.22l-.55.18c21.72.09,70.93-.13,106.79.14l-1.41.45c120,2.08,229.29-1.21,346.91-1.86,0,0,17.01-4.36,23.16-8.94,2.45-1.82,14.09-23.85,15.17-35.04,1.06-7.31,4.49-39.42,4.69-46.07.25-17.68-1.29-40.62-1.14-60.74l.1.3c-.12-41.48-1.83-63.45-1.9-101.35l.24,4.08c.09-13.4-.75-39.77-.81-63.94-2.04-45.05-2.4-137.17-4.3-220.93-1.05-131.72,10.21-356.42,4.26-445.32l.77,3.73c-.87-4.69-1.76-9.49-2.75-14.8C691.14,5.91,687.34,2.99,683.43,0c-55.29,4.57-120.64,5.65-181.5.36-17.5,1.33-35.81,3.92-53.73.04-109.61,3.61-247.77.03-349.49,1.02-11.09-.29-24.17-.44-37.46-.55C45.14,2.11,28.52-2.49,14.67,3.11,18.44.72,24.45.2,27.06.94,19.61.13,12.12,5.11,5.25,7.95.48,18.59,1.7,38.14.94,42.92c-.81,20.1-.85,24.82.15,49.32,7.83,200.42,7.2,437.59,3.52,635.43l-.11-4.12Z" class="cls-1"></path></svg>