<svg viewBox="0 0 700 1000" xmlns="http://www.w3.org/2000/svg" id="Layer_1"><defs><style>.cls-1{fill:#2c222e;}</style></defs><path d="M698.8,916.75c1.33-21.29-1.09-45.92-1.1-70.21l.11.3c.16-41.34-1.57-63.23-1.38-101l.24,4.07c.08-17.43-.65-44.41.33-63.75.94-183.61,3.76-454.4,2.49-665.81.43,1.9.32,3.89.37,5.84,1-7.48-3.61-13.51-8.35-18.8-4.55-5.06-13.93-5.06-20.35-5.55C462.3-1.28,217.29,4,17.8,0c13.59.26,8.95.65-1.68.62C-6.16,1.83,1.49,36.81.49,50.27c1.23,43.65,1.57,81.42,2.57,144.9,1.95,73.13.93,152.94-1.92,226.52-.24,109.89,2.22,201.91,3.3,304.01l-.13-4.12c-.06,54.84-4.07,169.48-3.2,236.03-.05.05.14.05-.11.14.92,3.32,1.89,6.58,3.23,9.71.6,1.79,2.16,3.33,2.65,5.12.03,1.63.3,3.35.43,4.97,1.39,5.27,5.94,10.24,10.63,12.78,2.94,1.36,6.26.95,9.39,1.01,14.03,2.79,26.27,6.57,39.82,8.54,0,.06.03-.13.03.14,11.97-.89,28.42-3,35.59-3.55l-6.75.51c13.43-1.28,20.37-2.29,30.99-2.81,12.26,6.04,25.67.46,40.7.68-1.23-.36,2.09-.63,2.61-.85,12.91-.47,32.18-.34,43.79-.26l-.55.2c21.68.17,70.78.09,106.58.51l-1.41.5c110.81,1.1,210.57,3.19,319,4.06,18.98.74,29.06,3.42,47.95-6.58,1.83,1.56,14.09-60.73,13.13-75.65ZM127.03,994.14l-.16-.08c.2.02.37.17.54.25l-.38-.18Z" class="cls-1"></path></svg>