<svg viewBox="0 0 700 1000" xmlns="http://www.w3.org/2000/svg" id="Layer_1"><defs><style>.cls-1{fill:#202020;}</style></defs><path d="M14.33,992.4c18.89,10,28.97,7.32,47.95,6.58,108.42-.87,208.19-2.96,319-4.06l-1.41-.5c35.79-.42,84.9-.34,106.58-.51l-.55-.2c11.61-.08,30.87-.21,43.79.26.52.22,3.83.49,2.61.85,15.03-.22,28.44,5.37,40.7-.68,10.62.52,17.56,1.53,30.99,2.81l-6.75-.51c7.16.55,23.61,2.66,35.59,3.55,0-.27.02-.08.03-.14,13.56-1.98,25.79-5.75,39.82-8.54,3.13-.06,6.44.35,9.39-1.01,4.69-2.54,9.23-7.51,10.63-12.78.13-1.62.39-3.34.43-4.97.49-1.78,2.05-3.32,2.65-5.12,1.34-3.13,2.31-6.39,3.23-9.71-.25-.09-.06-.09-.11-.14.87-66.55-3.14-181.19-3.2-236.03l-.13,4.12c1.08-102.1,3.54-194.12,3.3-304.01-2.85-73.58-3.87-153.39-1.92-226.52,1-63.48,1.34-101.24,2.57-144.9-1-13.46,6.65-48.44-15.63-49.65C673.25.65,668.61.26,682.2,0,482.71,4,237.7-1.28,28.84,1.84c-6.42.49-15.8.49-20.35,5.55C3.75,12.67-.85,18.71.14,26.19c.04-1.95-.06-3.94.37-5.84-1.28,211.41,1.54,482.2,2.49,665.81.98,19.34.26,46.32.33,63.75l.24-4.07c.19,37.77-1.54,59.67-1.38,101l.11-.3c0,24.29-2.43,48.92-1.1,70.21-.96,14.92,11.29,77.21,13.13,75.65ZM572.59,994.32c.17-.08.34-.23.54-.25l-.16.08-.38.18Z" class="cls-1"></path></svg>