<svg viewBox="0 0 176.38 176" version="1.1" xmlns="http://www.w3.org/2000/svg" id="Layer_1">
  
  <path d="M79.36,1.91c5.35,1.92,11.35,2.5,16.76,4.23,7.4,3.54,14.47,7.41,20.86,12.27,5.47,3.54,7.86,9.86,12.75,13.96,5.72,7.23,9.44,16.61,12.56,25.24,3.62,8.52,3.87,19.15,2.12,27.91-1.35,4.83-3.57,9.54-4.96,14.44-1.32,3.41-3.47,5.21-4.21,8.66-1.8,6.1-2.28,15.45,3.03,20.23,3.33,2.82,6.17,6.41,9.5,9.24,3.35,2.48,7.24,4.47,10.58,7,4.67,4.5,9.16,9.23,13.81,13.73,3.11,3.65,4.89,11.08,1.29,14.92-7.27,5.16-13.81-5.12-18.59-9.34-3.61-2.84-7.91-4.9-11.51-7.73-6.09-6.18-12.37-12.23-18.32-18.54-5.73-5.88-15.83-4.82-21.29.78-6.75,3.54-14.57,5.14-21.72,7.92-6.71,3.02-12.19.25-18.83-1.23-3.61-.88-7.42-1.29-10.76-2.89-2.67-1.73-5.91-3.12-8.86-4.58-3.09-1.97-6.76-3.03-9.82-5.11-4.65-3.5-9.76-6.32-14.38-9.83-1.62-1.6-2.64-3.65-3.82-5.65-1.67-2.93-3.89-4.92-5.35-7.83-1.47-3.86-1.78-8.16-2.91-12.12-1.44-5.54-5.78-9.08-6.05-15.34-.32-5.27-.77-13,.71-18.54,2.82-7.83,5.25-16.07,8.31-23.85,1.6-3.6,4.86-5.72,7.39-8.57,4.36-4.22,8.51-8.65,12.88-12.85,6.79-7.87,17.2-10.25,26.78-13.25,6.66-2.51,14.72-6.21,21.91-3.34l.14.04ZM91.71,17.47c-1.7-.87-4.83-1.45-7.7-1.39-6.04.06-14.18-.12-20.02.07-5.28.25-7.96,2.83-12.56,5.21-2.94.94-5.1,2.72-7.99,3.96-5.14,2.2-10.32,5.03-13.44,9.74-2.02,2.93-3.64,6.46-5.85,9.06-1.1,1.27-2.16,2.57-2.75,4.19-1.5,5.3-4.34,9.76-5.02,15.12-.26,6.01-.04,14.61-.1,20.78-.04,3.95,1.13,7.78,3.37,10.94,1.39,1.82,2.15,4.07,3.07,6.15,2.74,5.78,7.09,10.15,11.69,14.39,3.58,3.7,6.94,7.58,11.6,10.03,2.29,1.69,5.56,2.67,8.44,3.52,4.41,1.46,7.43,3.17,12.28,4.12,4.9.5,11.6.37,15.96.09,3.49-.36,6.38-1.91,9.74-2.99,3.18-1.48,7.23-2.03,10.33-3.92,5.61-2.86,9.52-7.32,13.78-11.65,4.2-3.84,8-7.93,10.67-13.14,1.5-2.94,2.12-6.61,3.46-9.52,1.11-3.5,2.65-6.24,3.01-9.92.28-2.58.14-6.21.18-9.6.41-5.5-1.21-10.22-3.18-15.23-1.01-2.38-1.83-5.27-2.69-7.87-1.29-2.96-3.13-5.62-4.97-8.25-3.17-3.5-6.69-6.68-9.97-10.07-3.93-4.35-8.75-7.86-14.33-9.93-2.54-1.02-4.48-3.01-6.9-3.85l-.11-.04Z"></path>
</svg>