<svg fill="#A393CF" preserveAspectRatio="none" viewBox="0 0 1999.24 192.05" version="1.1" xmlns="http://www.w3.org/2000/svg">
  <path d="M.24,0h1999v182.08c-2.7-.68-4.98,1.59-7.5.99-.99-.23-5.29-2.18-6-1.99-5.56,1.52-9.82-.92-14.99,0-2.03.36-13.2,2.21-13.99,1.99-3.18-.87-3.78,1.63-6,.99-1.01-.29-1.42-2.82-5-1.99-3.09.72-11.13,1.99-13.99,1.99-3.71,0-7.6-.56-10.99,0-4.59.76-4.73-1.64-6-1.99-5.18-1.42-14.15,1.69-17.99.99-.3-.05-1.01-1.56-3-.99-2.96.85-1.63-.62-3-.99-2.12-.58-10.29-.55-11.99,0-4.29,1.37-10.63,1.25-15.99,0-2.48-.58-4.12,1.24-5,.99-1.72-.47.27-1.95-4-.99s-8.14-2.55-10-1.99c-3.15.95-3.03-.28-4,0-.64.18-1.4,2.07-2.5,1.99.16-4.76.06-2.29-2.5-1.99-4.78.56-9.8,1.29-13.99,0-.88-.27-9.45-2.15-10-1.99-4.46,1.35-6.32-.76-9,0-.94.27-14.84-1.47-17.99-1.99-4.72-.78-11.5-1.22-15.99-1.99-7.63-1.3-17.68-.7-25.99-2.98-1.31-.36-1.74.99-2,.99-.22,0-1.43-1.56-4-.99-1.11.24-3.67,2.9-4,2.98-1.56.43-4.29-.37-6,0-1.17.25-4.69,3.34-6,2.98-3.8-1.05-7.47-.86-10.99-1.99-2.96-.95-8.73-.24-12.99-.99-2.72-.48-7.16-1.14-10,0-3.36,1.36-3.76-.14-7-.99-6.62-1.76-15.63-1.96-22.99-3.98-.85-.23-1.46-2.72-4-1.99-3.85,1.1-9.12-2.15-12.99-2.98-9.65-2.08-19.65-2.15-28.99-4.97-1.97-.6-2.83.99-3,.99-.33,0-.62-.93-1-.99-6.59-1.09-14.61,3.15-20.99,4.97-.88.25-1.82,1.97-1.5,2.98-1.46-.23-1.98-2.41-3.5-1.99-2.57.7-5.83,1.69-9,.99-4.48-.99-9.77-.39-14.99.99-3.78,1.01-9.21.45-13.99-.99-2.18-.66-4.73,2.75-8,1.99-3.57-.83-13.86-1.68-17.99-.99-4.91.81-15.66.72-19.99,0-5.53-.92-11.55,1.18-15.99,0-3.06-.81-2.28,1.47-4,.99-3.82-1.05-4.99-.32-8-.99-4.85-1.08-13.47.65-18.99,0-.94-.11-.43-1.16-.5-1.99-1.78-.4-.72,1.73-1,1.99-.91.83-2.35-.99-2.5-.99-.33,0-.62.93-1,.99-3.44.57-8.98-1.72-13.99-.99-1.37.2-8.08,1.26-9,.99-4.32-1.23-7.8-.43-12.99.99-1.61.44-2.36-2.74-5-1.99-4.13,1.18-13.6-1.13-19.99,0-7.89,1.4-17.17-.61-25.99.99-3.27.59-6.18-1.63-10-.99s-14.64.97-18.99,0c-3.87-.86-7.57.94-10.99,0-1.12-.31-3.75,1.99-4,1.99-.18,0-2.82-1.99-3-1.99-.26,0-2.41,3.07-3.5,1.99-.18-.17.68-2.9-1.5-1.99-.43.18-.65.93-1,.99-4.78.84-8.79-1.37-12.99,0-3.95,1.29-4.29-.52-6,0-3.33,1.01-3.86-.54-7,0s-5.57-1.99-6-1.99c-.51,0-1.47,2.41-3,1.99-6.74-1.85-16.86,1.75-22.99,0-1.2-.34-8.13.64-10.99,0-3.69-.82-7.15.17-10.99-.99-2.43-.73-3.6,1.99-4,1.99-.33,0-.62-.93-1-.99-4.49-.74-12.89-.68-16.99,0-3.09.51-2.47-1.41-4-.99-2.73.75-10.42.71-12.99,0-.47-.13-8.52,2.12-9,1.99-.41-.11-.67-.99-1-.99s-.61.91-1,.99c-3.76.78-2.15-1.64-2.5-1.99-.82-.82-2.36.97-2.5.99-1.63.29-6.99,1.17-8,.99-4.81-.82-10.73-.29-14.99-.99-1.37-.23-5.69-.26-7,0-.34.07-1.09,1.49-1.5.99-.16-.19.27-4.78-2.5-3.98-2.36.68-.38,2.89-.5,2.98-1.82,1.48-1.77-.46-2-1.49-.19-.89-1.87-.62-2-.5-.12.11-.2,3.02-1.5,2.98-.39,0-1.62-1.99-2-1.99-.35,0-2.01,2.54-2.5,1.99-.11-.13.25-2.15-1.5-2.98-2.07-.99-1.4,1.91-1.5,1.99-.26.21-1.76-.2-2.5,0-.41.11-.63.94-1,.99-2.73.41-6.64-1.09-7-.99-4.83,1.33-4.47.92-9,0-4.22-.86-2.93.5-3.5,1.49-1.71,3-3.27.5-3.5.5-.73,0-2.87,4.98-4,4.97-.33,0-.62-.93-1-.99-5.06-.84-7.74,3.67-10,2.98-.41-.12-.63-.93-1-.99-1.11-.21-4.23.27-4.5,0-.19-.19.19-1.8,0-1.99-.29-.29-4.23.21-5.5,0-2.12-.35-3.25.41-5,0-2.5-.58-4.61-1.55-8-.99-3.1.51-3.68-1-4-.99-.34,0-.65.98-1,.99-.13,0-1.68-1.83-2.5-.99-.23.24.54,2.05-.5,1.99-.99-.69-4.59-4.97-5-4.97-.32,0-.58.88-1,.99-.36.1-5.79-.78-7-.99-.35-.06-.57-.81-1-.99-2.18-.91-1.29,1.74-1.5,1.99s-4.85-3.13-6-1.99c-.18.17.68,2.9-1.5,1.99-3.03-1.26-1.36-.45-3,0-1.31.36-1.74-.99-2-.99-.33,0-.59.88-1,.99-1.8.49-3.2-3.48-5-2.98-3.13.86-3.68-1.36-5-.99-3,.83-2.36-1.75-5-.99-1.91.54-3.12.2-6,.99-1.52.42-2.49-1.99-3-1.99-.62,0-.96,1.9-5,.99-3.35-.75-9.06,1.25-10,.99-3.94-1.08-4.62-.75-8,0-1.53.34-7.1-.39-7.5,0-.19.19.2,1.75,0,1.99-.41.5-1.16-.93-1.5-.99-5.57-1.1-10.65.95-15.99,0-3.9-.69-8.47-1.45-12.99,0-3.57,1.14-9.32-1.04-13.99,0-4.12.92-5.39-1.48-10,0-2.81.9-6.27.97-10,1.99-.98.27-2.15-.5-3,.99l-1-1.99c-.6.39-1.69,1.99-2,1.99-.25,0-1.09-1.49-1.5-.99-.2.24.19,1.8,0,1.99-1.24,1.24-4.03-2.98-4.5-2.98-.18,0-2.64,1.91-3,1.99-4.8,1.03-13.48.06-16.99.99-2.73.73-5.04.67-7,.99-.89.15-5.3.19-5.5,0-.32-.32,1.1-2.97-2.5-1.99-3.23.88-6.85.48-10.99.99s-8.72,1.37-12.99,0c-.45-.14-7.55-1.13-8-.99-.91.27-2.82,2.31-4,1.99-3.68-1.01-7.95,1.62-12.99.99-.68-.08-2.3-1.6-5-.99-4.25.95-3.2-.99-4-.99-.29,0-4.71,1.99-5,1.99-.37,0-1.62-1.99-2-1.99-.53,0,.06.34-2,0s-6.59-.39-8,.99c-1.04.06-.27-1.75-.5-1.99-.8-.82-2.37.97-2.5.99-2.13.36-12.54,1.32-13.99.99-2.44-.54-4.49-.18-7-.99-4.15-1.35-11.83.03-17.99-.99-6.79-1.12-18.22-.87-24.99-1.99s-13.61.43-18.99-.99c-3.15-.84-9.14-.64-11.99,0-1.69.38-4.44-.43-6,0s-.74,2.88-4,1.99c-.26-.07-4.22.78-5,.99-1.97.54-3.66,3.69-6,2.98-4.1-1.24-10.24-2.13-13.99-.99-1.95.59-2.71-.94-3-.99-3.02-.55-13.83-.87-16.99,0-.55.15-1.61,1.99-2,1.99s-1.44-1.83-2-1.99c-2.38-.68-4.64-.61-7-.99-4.93-.8-12.92-.6-17.99-1.99-.84-.23-1.5-2.75-4-1.99-4.61,1.39-13.6-2.06-18.99-2.98-3.72-.64-14.42-1.7-16.99-.99-1.31.36-1.87-1.85-5-.99-1.31.36-1.53-.85-2-.99-1.97-.6-2.83.99-3,.99-.33,0-.62-.93-1-.99-1.44-.24-7.25.62-9,.99-1.6.35-7.86,4.01-10,4.97-1.24.56-3.95-.34-3.5,2.98-1.03.12-2.07-1.99-2.5-1.99-.33,0-.59.89-1,.99-3.64.97-6.9-.68-10.99,0-3.12.52-7.97.75-11.99,1.99-3.17.98-3-.29-4,0-.56.16-1.61,1.99-2,1.99-.94,0-6.54-1.65-8-1.99-3.16-.73-4.9,2.89-10,1.99-5.51-.98-13.82,1.15-17.99,0-1.31-.36-1.55.87-2,.99-.87.25-3.54-1.97-4.5-.99-.19.19.2,1.75,0,1.99-.22.26-3.51-1.66-6.5-.99-3.88.86-9.85-.55-14.99,0-1.02.11-3.13,1.63-6,.99-4.25-.95-3.2.99-4,.99-5.67,0-13.63-1.92-19.99-.99-7.44,1.08-18.15-.44-26.99,1.99-.62.17-3.56-.79-7,0-4.38,1.01-18.27-.49-19.99,0-4.71,1.35-12.56-.45-17.99.99-4.34,1.15-6.77-.7-10.99,0-7.51,1.24-23.47.41-31.98,2.98-1.04.32-6.65-1.74-10-.99-3.73.83-11.91-.13-15.99.99-1.27.35.06,1.52-3,.99-2.52-.43-4.2,1.21-5,.99-4.59-1.26-6.6-.24-10-.99-3.94-.88-5.07,1.58-7,1.99-3.06.66-13.62-.41-16.99-.99-.14-.03-1.67-1.82-2.5-.99-.18.17.68,2.9-1.5,1.99-3.86-1.61-3-.29-5,0-5.36.78-18.54,1.73-22.99.99s-9.96.83-12.99,0c-1.34-.37-1.66,1.36-3,.99-5.99-1.64-5.1.99-6,.99-2.91,0-8.08-1.81-12.99-.99-1.51.25-9.5,1.42-10.99.99-3.01-.86-3.58,1-4,.99-.51,0-1.47-2.41-3-1.99-2.02.56-2.82.62-5,.99-2.35.4-9.53,2.43-10.99,1.99-4.91-1.49-6.68.96-10.99,0-2.69-.6-9.79.6-11.99.99-1.46.26-9.83.32-10.99,0-1.62-.44-1.37-2.86-1.5-2.98-.7-.7-2.73,1.43-4,.99l2,1.99c-1.63.76-3.51-2.51-4-1.99-.11.12.27,2.14-1.5,2.98-1.53.73-1.82-.77-1.5-1.99-1.78-.4-.72,1.73-1,1.99-2.18,1.99-1.86-1.85-2-1.99-.11-.11-2.15-.15-3-.99.45,4.32-.34,2.39-2.5,2.98-.44.12-.68,1.36-2,.99-5.26-1.44-9.58.77-15.99-.99-1.32-.36-1.6.91-2,.99-4.95,1.1-11.13.43-15.99,1.99-.41.13-.61.89-1,.99-1.39.38-2-1.31-3-1.99-.24-.16-.79.15-1,0-1.64-1.2-3.49-4.14-5-4.97-.47-.26-1.31.19-1.5,0-.14-.14.04-2.15,0-2.98-4.46,0-1.23-3.21,0-1.99.11.11-.03,1.34,0,1.99.81,0,1.81.14,2.5,0,.43-.09,3.62-1.92,4-1.99,1.64-.29,3.76.2,5.5,0l1,5.97c.85-.84,2.89-.88,3-.99s.11-2.88,0-2.98c-.19-.19-1.76.2-2,0-.5-.41.93-1.16,1-1.49.23-1.17.25-5.83,0-6.96-.07-.34-1.93-2.65-2-2.98-.42-1.93,1.12-6.51-1.5-5.47-.44.17-.69.99-1,.99-1.61,0-1.71-4.4-1.5-5.97-1.62-.3-.82,2.53-2.5,2.98-3.43.94-4.83-3.33-6.5,1.49-.41,1.18-1.71-1.16-3-.5-.39,2.7.44,1.94,2.5,1.99,3.16.07,6.34-.05,9.5,0-.45,1.19,1.7,3.3,1,3.98-.47.46-2.93-1.42-2,3.48-1.02.94-3.75,6.47-4.5,6.47-.32,0-4.41-4.17-4.5-4.48-.25-.92.16-2.4,0-3.48,2.87,2.43,2.37-1.29,2-2.49-.8-2.58-2.17-.49-3,0-.76.44-2.63.85-3,.5-1.09-1.06,1.01-3.3,1-3.48-.07-1.1-.41-.04,0-1.99.16-.76-.19-2.3,0-2.49.38-.37,5.18,1.02,4-1.49s-2.77-.21-3-.5c-.17-.21.22-.96,0-1.49-.17-.43-.92-.64-1-.99-.2-.94.24-3.24,0-3.48-.55-.55-7.26,1.16-8-1.49V0h.24ZM24.22,144.27c-.12-.1-2.88-.1-3,0-1.57,1.31,4.57,1.31,3,0ZM33.72,144.27c-.65,0-.65.99,0,.99s.65-.99,0-.99ZM70.2,144.27c-.76-.63-2.8.33-2,.99.76.63,2.8-.33,2-.99ZM77.2,147.25l-2.5-2.98-1.5,4.97c1.79.39.72-1.73,1-1.99.22-.2,2.19.12,3,0ZM87.19,144.27c-1.02-1.02-4.02,1.97-3,2.98s4.02-1.97,3-2.98ZM170.15,150.24c-.13-.13.13-2.52-1.5-2.98-1.36-.39-1.91,2.08-3.5-.5.86-.41,1.4-2.05,1-2.49-.16-.18-3.79,1.76-4,2.49-.29,1.02,1.75,2.67,1,4.48,1.79.39.72-1.72,1-1.99.75-.7,2.81,1.47,4,.99l1,4.97c1.83.28.7-1.51,1-2.49.18-.58,2.56-1.97,2-2.49-.21-.19-1.81.19-2,0h0ZM195.64,144.27c-.65,0-.65.99,0,.99s.65-.99,0-.99ZM204.63,144.27c-.65,0-.65.99,0,.99s.65-.99,0-.99ZM229.62,144.27c-.65,0-.65.99,0,.99s.65-.99,0-.99ZM240.12,144.27c-1.09-1.09-3.09.9-2,1.99s3.09-.9,2-1.99ZM369.55,144.27c-.65,0-.65.99,0,.99s.65-.99,0-.99ZM449.51,144.27c-.65,0-.65.99,0,.99s.65-.99,0-.99ZM1144.66,152.23l1-4.48c-.82-.55-3.1-3.47-3.5-3.48-.79-.03-1.88,2.28-1.5,3.48.33,1.04,2.37,2.28,0,3.98.67,1.16,1.12-.5,1.5-.5.13,0,1.69,1.83,2.5.99h0ZM1181.65,144.27c-.79-.79-6,1.54-6,2.49,0,.21,1.85,2.98,2.5,3.48l.5-3.98,2,3.48c1.29,1.21,3.33.35,4-.99,1.14-2.29-2.79-1.26-3-1.49-.25-.28.25-2.74,0-2.98h0ZM1268.6,144.27c-.76-.63-2.8.33-2,.99.76.63,2.8-.33,2-.99ZM1329.57,144.27c-.76-.63-2.8.33-2,.99.76.63,2.8-.33,2-.99ZM92.19,147.25c.64-.76-.33-2.79-1-1.99-.64.76.33,2.79,1,1.99ZM113.18,145.26c-.76-.63-2.8.33-2,.99.76.63,2.8-.33,2-.99ZM138.17,147.25c.64-.76-.33-2.79-1-1.99-.64.76.33,2.79,1,1.99ZM1128.17,145.26c-.65,0-.65.99,0,.99s.65-.99,0-.99ZM1278.6,145.26c-.76-.63-2.8.33-2,.99.76.63,2.8-.33,2-.99ZM1309.58,147.25c.57-.46-2.17-2.82-3-1.99-1.63,1.62,1.92,2.86,3,1.99ZM1312.58,148.25c.93.76,4.49-1.24,1.5-2.98-.86-.5-.27.97-.5,1.49-.19.43-1.48,1.1-1,1.49h0ZM100.69,146.26c-.65,0-.65.99,0,.99s.65-.99,0-.99ZM301.59,146.26c-.65,0-.65.99,0,.99s.65-.99,0-.99ZM1345.56,146.26c-.68-.7-2.8,1.45-4,.99.13.82-.21,2.72,0,2.98.41.5,1.13-.9,1.5-.99.75-.19,2.29.2,2.5,0,.11-.11.1-2.88,0-2.98ZM67.7,147.25c-.65,0-.65.99,0,.99s.65-.99,0-.99ZM154.16,149.24c.64-.76-.33-2.79-1-1.99-.64.76.33,2.79,1,1.99ZM206.13,147.25c-.76-.63-2.8.33-2,.99.76.63,2.8-.33,2-.99ZM1993.24,147.25c-.76-.63-2.8.33-2,.99.76.63,2.8-.33,2-.99ZM1998.24,147.25c-1.09-1.09-3.09.9-2,1.99s3.09-.9,2-1.99ZM3.23,148.25c-.76-.63-2.8.33-2,.99.76.63,2.8-.33,2-.99ZM180.15,150.24c.64-.76-.33-2.79-1-1.99-.64.76.33,2.79,1,1.99ZM1101.19,148.25c-.65,0-.65.99,0,.99s.65-.99,0-.99ZM1349.56,150.24c.57-.46-2.17-2.82-3-1.99-1.63,1.62,1.92,2.86,3,1.99ZM1351.56,150.24c.64-.76-.33-2.79-1-1.99-.64.76.33,2.79,1,1.99ZM41.22,152.23c.19-.24.24-3.42-.5-2.98-2.8,1.63.21,3.34.5,2.98ZM197.14,151.23c1.03-1.02-.32-3.37-2-.5-.42.72,1.82.68,2,.5ZM336.57,149.24c-.65,0-.65.99,0,.99s.65-.99,0-.99ZM1085.69,152.23c.43.53,3.26-1.87.5-2.98s-.75.92-.5,1.49c.23.52-.17,1.28,0,1.49h0ZM1173.65,151.23c.64-.76-.33-2.79-1-1.99-.64.76.33,2.79,1,1.99ZM1311.58,149.24c-2.11-.26-2.26-.11-2,1.99l2-1.99ZM1365.05,149.24c-.65,0-.65.99,0,.99s.65-.99,0-.99ZM10.23,150.24c-1.63-1.62-2.87,1.91-2,2.98.46.57,2.83-2.16,2-2.98ZM30.72,150.24c-.65,0-.65.99,0,.99s.65-.99,0-.99ZM155.16,150.24l-3,2.98,4,1.99-1-4.97ZM1124.67,150.24c-1.09-1.09-3.09.9-2,1.99s3.09-.9,2-1.99ZM1292.59,150.24c-.76-.63-2.8.33-2,.99.76.63,2.8-.33,2-.99ZM1323.57,150.24c-1.63-1.62-2.87,1.91-2,2.98.46.57,2.83-2.16,2-2.98ZM1407.53,150.24c-1.09-1.09-3.09.9-2,1.99s3.09-.9,2-1.99ZM28.22,151.23c-1.02-1.02-4.02,1.97-3,2.98.11.11,2.89.11,3,0s.11-2.88,0-2.98ZM114.18,154.22c.1-.11.1-2.87,0-2.98-1.31-1.56-1.31,4.55,0,2.98ZM253.61,151.23c-.65,0-.65.99,0,.99s.65-.99,0-.99ZM1270.6,151.23c-2.12-2.11-1.87,1.86-2,1.99-.18.18-4.48.38-2.5,2.98,1.16.62-1.02,1.54-.5,1.99.95.81,6.54-.98,7-2.49.78-2.6.01-2.15-1.5-2.49-1.09-.24-.25-1.74-.5-1.99h0ZM1023.72,157.2c.58.58,3-.88,3-1.49,0-.33-.92-.6-1-.99-.16-.77.2-2.25,0-2.49-.91-1.08-.92,1.29-1,1.49-.28.69-2,2.49-1,3.48h0ZM1223.62,152.23c-.12-.1-2.88-.1-3,0-1.57,1.31,4.57,1.31,3,0ZM1341.07,152.23c-.65,0-.65.99,0,.99s.65-.99,0-.99ZM1363.55,154.22c1.03-1.02-.32-3.37-2-.5-.42.72,1.82.68,2,.5ZM68.2,153.22c-1.63-1.62-2.87,1.91-2,2.98.46.57,2.83-2.16,2-2.98ZM124.17,153.22c-.11-.11-2.89-.11-3,0-2.66,2.65,5.66,2.65,3,0ZM144.66,153.22c-.65,0-.65.99,0,.99s.65-.99,0-.99ZM268.1,153.22l-3,1.49,4,3.48-1-4.97ZM287.59,153.22c-.65,0-.65.99,0,.99s.65-.99,0-.99ZM467.5,153.22c-.65,0-.65.99,0,.99s.65-.99,0-.99ZM747.36,153.22c-.65,0-.65.99,0,.99s.65-.99,0-.99ZM861.81,155.21c.64-.76-.33-2.79-1-1.99-.64.76.33,2.79,1,1.99ZM886.29,153.22c-.65,0-.65.99,0,.99s.65-.99,0-.99ZM1475,153.22c-.65,0-.65.99,0,.99s.65-.99,0-.99ZM19.23,154.22c-1.09-1.09-3.09.9-2,1.99s3.09-.9,2-1.99ZM53.21,161.18c.41-.49,1.25.99,1.5.99.51,0,4.3-3.26,6.5-1.99-.45-1.19,1.7-3.3,1-3.98-.28-.27-2.59.25-3.5,0-.63-.17-1.4-2.07-2.5-1.99.54,4.01-.53,2.44-1.5,2.98-2.19,1.24-1.31,3.79-1.5,3.98-.14.14-4.13-.13-2,1.99s1.87-1.84,2-1.99h0ZM106.68,154.22c-.65,0-.65.99,0,.99s.65-.99,0-.99ZM281.1,156.21l-2-1.99c-.26,2.1-.11,2.25,2,1.99ZM742.37,154.22c-.65,0-.65.99,0,.99s.65-.99,0-.99ZM1073.7,154.22c-.15-.15-3.45-.27-3,.5,1.76,2.99,4.41.91,3-.5ZM1170.65,154.22c-1.43-1.42-5.9,1.98-2.5,2.98,3.02.89,3.28-2.2,2.5-2.98ZM1378.05,154.22c-.65,0-.65.99,0,.99s.65-.99,0-.99ZM22.72,155.21c-.65,0-.65.99,0,.99s.65-.99,0-.99ZM94.19,155.21c-2.44-.39-2.16.29-2,2.49l3,3.48-1-5.97ZM102.19,159.19l-4-3.98c1.12,2.19-2,4.16-2,4.48,0,.63,2.46,2.08,3,1.49.62-.68-1.61-4.99,3-1.99ZM220.63,155.21c-.65,0-.65.99,0,.99s.65-.99,0-.99ZM579.45,155.21c-.65,0-.65.99,0,.99s.65-.99,0-.99ZM659.41,155.21c-.65,0-.65.99,0,.99s.65-.99,0-.99ZM920.28,155.21c-.65,0-.65.99,0,.99s.65-.99,0-.99ZM1177.65,155.21c-.29-.29-3.84-.61-3,1.49,1.22,3.03,3.99-.5,3-1.49ZM1223.62,155.21c-1.03-1.02-3.39.32-.5,1.99.73.42.68-1.81.5-1.99ZM1279.6,155.21h-6c-.48,3.32.16,3.48,3.5,2.98,1.82-.27,2.75-1.12,2.5-2.98ZM1317.08,155.21c-.65,0-.65.99,0,.99s.65-.99,0-.99ZM1942.76,155.21c-.65,0-.65.99,0,.99s.65-.99,0-.99ZM1991.74,155.21c-.65,0-.65.99,0,.99s.65-.99,0-.99ZM193.14,158.2l-2-1.99c-.26,2.1-.11,2.25,2,1.99ZM1411.03,156.21c-.65,0-.65.99,0,.99s.65-.99,0-.99ZM1639.92,156.21c-.65,0-.65.99,0,.99s.65-.99,0-.99ZM40.22,157.2c-1.09-1.09-3.09.9-2,1.99s3.09-.9,2-1.99ZM87.19,160.19c.1-.11.1-2.87,0-2.98-1.31-1.56-1.31,4.55,0,2.98ZM254.11,161.18c1.05-1.04-1.35-4.78-2-3.98-.82,1.01,1,2.34,1,2.49,0,.25-1.49,1.09-1,1.49.08.07,1.93.07,2,0h0ZM1069.2,157.2c-.65,0-.65.99,0,.99s.65-.99,0-.99ZM26.72,158.2c-.65,0-.65.99,0,.99s.65-.99,0-.99ZM249.11,159.19l-4-.99c.06.78,2.3,2.98,2.5,2.98.21,0,1.84-1.71,1.5-1.99h0ZM285.09,158.2c-.54-.54-5,.17-5,1.49,0,3,7.14.64,5-1.49ZM1029.72,160.19c.64-.76-.33-2.79-1-1.99-.64.76.33,2.79,1,1.99ZM1986.24,158.2c-.76-.63-2.8.33-2,.99.76.63,2.8-.33,2-.99ZM24.72,159.19c-.65,0-.65.99,0,.99s.65-.99,0-.99ZM33.22,159.19c-1.09-1.09-3.09.9-2,1.99s3.09-.9,2-1.99ZM84.19,159.19c-2.11-.26-2.26-.11-2,1.99l2-1.99ZM149.16,159.19c-.76-.63-2.8.33-2,.99.76.63,2.8-.33,2-.99ZM208.13,159.19c-.76-.63-2.8.33-2,.99.76.63,2.8-.33,2-.99ZM217.13,161.18c.64-.76-.33-2.79-1-1.99-.64.76.33,2.79,1,1.99ZM291.09,161.18c.64-.76-.33-2.79-1-1.99-.64.76.33,2.79,1,1.99ZM347.06,159.19c-1.03-1.02-3.39.32-.5,1.99.73.42.68-1.81.5-1.99ZM414.53,159.19c-.65,0-.65.99,0,.99s.65-.99,0-.99ZM910.28,159.19c-.65,0-.65.99,0,.99s.65-.99,0-.99ZM915.78,159.19c-2.11-.26-2.26-.11-2,1.99l2-1.99ZM1071.7,162.18c.1-.11.1-2.87,0-2.98-1.31-1.56-1.31,4.55,0,2.98ZM1177.65,159.19c-.11-.11-2.89-.11-3,0-1.02,1.02,1.98,4,3,2.98.11-.11.11-2.88,0-2.98ZM289.09,160.19c-.12-.1-2.88-.1-3,0-1.57,1.31,4.57,1.31,3,0ZM304.58,160.19c-.65,0-.65.99,0,.99s.65-.99,0-.99ZM906.78,160.19c-1.03-1.02-3.39.32-.5,1.99.73.42.68-1.81.5-1.99ZM928.27,160.19c-.65,0-.65.99,0,.99s.65-.99,0-.99ZM1055.21,160.19c-.65,0-.65.99,0,.99s.65-.99,0-.99ZM1719.88,160.19c-.65,0-.65.99,0,.99s.65-.99,0-.99ZM26.72,161.18c-.65,0-.65.99,0,.99s.65-.99,0-.99ZM152.16,161.18c-.76-.63-2.8.33-2,.99.76.63,2.8-.33,2-.99ZM42.22,162.18c-.12-.09-2.89-.11-3,0s-.11,2.88,0,2.98c1.89,1.88,1.8-1.05,2-1.49s1.48-1.1,1-1.49h0ZM90.19,162.18c-1.09-1.09-3.09.9-2,1.99s3.09-.9,2-1.99ZM119.18,168.15c.46-.45,1.2,1.37,2.5.99.18-.05,2.28-2.11,2.5-2.49.53-.9-3.1-.35-4-.5.46-1,1.72-3.14,1-3.98-.23-.26-6,2.97-6,3.48,0,.21,2.02,3.35,2.5,3.48,1.56.43,1.42-.92,1.5-.99h0ZM251.11,162.18c-2.11-.26-2.26-.11-2,1.99l2-1.99ZM263.1,164.17c1.03-1.02-.32-3.37-2-.5-.42.72,1.82.68,2,.5ZM303.08,165.16c.11-.11.1-2.87,0-2.98-.91-1.09-.92,1.32-1,1.49-.19.43-1.48,1.1-1,1.49.08.07,1.93.07,2,0h0ZM642.91,164.17l-2-1.99c-.26,2.1-.11,2.25,2,1.99ZM902.78,164.17c.64-.76-.33-2.79-1-1.99-.64.76.33,2.79,1,1.99ZM929.77,164.17c.64-.76-.33-2.79-1-1.99-.64.76.33,2.79,1,1.99ZM1172.65,162.18c-.76-.63-2.8.33-2,.99.76.63,2.8-.33,2-.99ZM1807.83,162.18c-.65,0-.65.99,0,.99s.65-.99,0-.99ZM30.22,163.17c-.99-.81-3.79,1.76-4,2.98,1.2-.19,1.78,0,2.5.99.49.68.77,3.67,2.5,1.99,1.73-1.68-2.46-2.32-3-3.48-.97-2.11,3.37-1.37,2-2.49h0ZM1802.83,163.17c-.65,0-.65.99,0,.99s.65-.99,0-.99ZM232.12,164.17c-.76-.63-2.8.33-2,.99.76.63,2.8-.33,2-.99ZM280.6,164.17c-.65,0-.65.99,0,.99s.65-.99,0-.99ZM317.58,164.17c-.65,0-.65.99,0,.99s.65-.99,0-.99ZM894.79,164.17c-1.03-1.02-3.39.32-.5,1.99.73.42.68-1.81.5-1.99ZM1051.71,166.16c.17.17.94-.2,1.5,0,.37.13,1.5,1.84,1.5.5,0-.2-2.69-2.83-3-2.49-.07.07-.07,1.92,0,1.99ZM85.19,167.15c-.19-.19-1.02.26-1.5,0-.65-.36-2.5-3.08-3.5-1.99-.87.95,1.01,3.33,1,4.48-.01,1.32-1.32,2.22-1,2.49.19.16,4.81.16,5,0,.48-.41-1.37-1.21-1-2.49.06-.21,1.82-1.67,1-2.49h0ZM261.61,165.16c-.65,0-.65.99,0,.99s.65-.99,0-.99ZM350.56,165.16c-.65,0-.65.99,0,.99s.65-.99,0-.99ZM856.31,165.16c-.65,0-.65.99,0,.99s.65-.99,0-.99ZM67.7,166.16c-.65,0-.65.99,0,.99s.65-.99,0-.99ZM210.13,166.16c-2.13-2.12-1.86,1.85-2,1.99-.19.19-1.81-.19-2,0-.11.11.28,1.98-1,2.49,1.94,1.03-.46,2.1,0,2.49,2.21,1.86,7.7-3.31,8-2.98.19.21-.19,1.8,0,1.99.18.17.96-.23,1.5,0,.42.18.62.89,1,.99,1.25.36,1.87-1.51,3.5-.99.49-4.12-2.24-.65-3.5-.99-1.32-.36-3.07-2.47-4-2.98-.47-.26-1.31.19-1.5,0s.19-1.8,0-1.99v-.02ZM1701.89,167.15c-.65,0-.65.99,0,.99s.65-.99,0-.99ZM1922.28,169.14c.64-.76-.33-2.79-1-1.99-.64.76.33,2.79,1,1.99ZM113.18,170.14c.64-.76-.33-2.79-1-1.99-.64.76.33,2.79,1,1.99ZM1946.76,168.15c-.65,0-.65.99,0,.99s.65-.99,0-.99ZM163.15,169.14c-.12-.1-2.88-.1-3,0-1.57,1.31,4.57,1.31,3,0ZM237.62,169.14c-.65,0-.65.99,0,.99s.65-.99,0-.99ZM40.72,170.14c-.65,0-.65.99,0,.99s.65-.99,0-.99ZM18.23,174.12c.64-.76-.33-2.79-1-1.99-.64.76.33,2.79,1,1.99ZM30.72,172.13c-.65,0-.65.99,0,.99s.65-.99,0-.99ZM64.2,172.13c-.76-.63-2.8.33-2,.99.76.63,2.8-.33,2-.99ZM163.15,174.12c.64-.76-.33-2.79-1-1.99-.64.76.33,2.79,1,1.99ZM1980.75,172.13c-.65,0-.65.99,0,.99s.65-.99,0-.99ZM110.18,173.12c-.11-.11-2.89-.11-3,0-1.23,1.23,1.66,5.31,3,3.98.14-.14.14-3.84,0-3.98ZM117.18,174.12c-.99-.99-4.54,1.77-1.5,2.98,2.11.84,1.79-2.69,1.5-2.98ZM1971.25,175.11c-.76-.63-2.8.33-2,.99.76.63,2.8-.33,2-.99ZM1975.25,177.1c1.03-1.02-.32-3.37-2-.5-.42.72,1.82.68,2,.5ZM30.22,180.09c.68.67,3.44-.89,3-2.49-.93-3.37-4.46,1.03-3,2.49ZM1966.25,178.1c.64-.76-.33-2.79-1-1.99-.64.76.33,2.79,1,1.99ZM1987.74,177.1c-.65,0-.65.99,0,.99s.65-.99,0-.99ZM117.18,178.1c-.99-.99-4.54,1.77-1.5,2.98,2.11.84,1.79-2.69,1.5-2.98ZM1916.28,180.09c.64-.76-.33-2.79-1-1.99-.64.76.33,2.79,1,1.99ZM1963.25,178.1c-.76-.63-2.8.33-2,.99.76.63,2.8-.33,2-.99ZM155.66,179.09c-.65,0-.65.99,0,.99s.65-.99,0-.99ZM1954.26,181.08c.64-.76-.33-2.79-1-1.99-.64.76.33,2.79,1,1.99ZM1990.24,179.09c-2.11-.26-2.26-.11-2,1.99l2-1.99ZM112.18,181.08c-.76-.63-2.8.33-2,.99.76.63,2.8-.33,2-.99Z"></path>
  <path d="M120.18,166.16c-.21.46-.85,1.84-1,1.99-.79.78-1.5-2.39-1-2.98.34-.4,1.06.84,2,.99h0Z"></path>
  <path d="M6.23,160.19c-.47.47-1.79-1.92-2-.5.69,1.57-.64,3.84-2,2.49-.26-.25.59-1.79-.5-1.99-.6-.11-1.37.13-1.5,0-.18-.18-.16-4.79,0-4.97.19-.22,2.31,1.71,3.5.99.79.69,3.42,3.05,2.5,3.98Z"></path>
  <path d="M11.23,185.06c.11.11.11,2.88,0,2.98s-2.89.11-3,0-.11-2.88,0-2.98,2.89-.11,3,0Z"></path>
  <path d="M3.23,178.1c.11.11.11,2.88,0,2.98s-2.89.11-3,0c-1.02-1.02,1.98-4,3-2.98Z"></path>
  <path d="M2.24,166.16c.11.11.11,2.88,0,2.98-2.66,2.65-2.66-5.63,0-2.98Z"></path>
  <path d="M5.73,163.17c.65,0,.65.99,0,.99s-.65-.99,0-.99Z"></path>
</svg>